<svg width="56" height="20" viewBox="0 0 56 20" fill="none" xmlns="http://www.w3.org/2000/svg">
<circle r="1.75" transform="matrix(1 0 0 -1 53.75 9.75)" fill="#999591"/>
<rect x="4" y="19" width="48" height="1" fill="#FF9000"/>
<path d="M14.2801 10.0869V12.8519C14.2801 13.0869 14.2256 13.3109 14.1165 13.5239C14.0158 13.7295 13.8773 13.9094 13.7011 14.0636C13.5248 14.2179 13.315 14.339 13.0716 14.4272C12.8366 14.5226 12.5849 14.5704 12.3163 14.5704C12.0478 14.5704 11.796 14.5263 11.561 14.4382C11.326 14.3501 11.1204 14.2326 10.9441 14.0857C10.7679 13.9315 10.6252 13.7552 10.5161 13.5569C10.4154 13.3513 10.3609 13.131 10.3525 12.896V10.858C10.3273 10.6304 10.2098 10.4651 10 10.3623C10.1175 10.3109 10.235 10.2852 10.3525 10.2852V7.68543C10.3609 7.45043 10.4154 7.23011 10.5161 7.02448C10.6252 6.81885 10.7679 6.64259 10.9441 6.49572C11.1204 6.34149 11.326 6.22032 11.561 6.13219C11.796 6.04406 12.0478 6 12.3163 6C12.5849 6 12.8366 6.04774 13.0716 6.14321C13.315 6.23133 13.5248 6.35251 13.7011 6.50673C13.8773 6.66095 14.0158 6.84455 14.1165 7.05753C14.2256 7.26316 14.2801 7.48715 14.2801 7.7295C14.2801 7.85435 14.2927 7.94614 14.3179 8.0049C14.3515 8.06365 14.385 8.11138 14.4186 8.1481C14.4522 8.18482 14.4816 8.21787 14.5067 8.24725C14.5403 8.27662 14.5571 8.32436 14.5571 8.39045H13.9025C13.7682 8.37577 13.7011 8.31334 13.7011 8.20318C13.7011 8.31334 13.6339 8.37577 13.4996 8.39045H12.8324C12.8324 8.32436 12.845 8.27662 12.8702 8.24725C12.9038 8.21787 12.9374 8.18482 12.9709 8.1481C13.0045 8.11138 13.0339 8.06365 13.059 8.0049C13.0926 7.94614 13.1094 7.85067 13.1094 7.71848V7.70747C13.1094 7.612 13.1052 7.49816 13.0968 7.36597C13.0884 7.22644 13.059 7.09425 13.0087 6.9694C12.9583 6.84455 12.8786 6.73807 12.7695 6.64994C12.6604 6.56181 12.5093 6.51775 12.3163 6.51775C12.1149 6.51775 11.9596 6.56548 11.8505 6.66095C11.7498 6.74908 11.6743 6.85557 11.6239 6.98042C11.5736 7.10526 11.5442 7.23745 11.5358 7.37699C11.5274 7.51652 11.5232 7.63403 11.5232 7.7295V10.2852C11.6407 10.2852 11.7582 10.3109 11.8757 10.3623C11.6659 10.4651 11.5484 10.6304 11.5232 10.858V12.8519C11.5232 12.9474 11.5274 13.0649 11.5358 13.2044C11.5442 13.3366 11.5736 13.4688 11.6239 13.601C11.6743 13.7258 11.7498 13.8323 11.8505 13.9204C11.9596 14.0086 12.1149 14.0526 12.3163 14.0526C12.5177 14.0526 12.6688 14.0086 12.7695 13.9204C12.8786 13.8323 12.9583 13.7258 13.0087 13.601C13.059 13.4688 13.0884 13.3366 13.0968 13.2044C13.1052 13.0649 13.1094 12.9474 13.1094 12.8519V10.5936C13.0171 10.601 12.9374 10.634 12.8702 10.6928C12.8115 10.7515 12.7821 10.8213 12.7821 10.9021V10.9131C12.7737 11.0233 12.7401 11.1187 12.6814 11.1995C12.631 11.2729 12.5555 11.339 12.4548 11.3978C12.3541 11.4492 12.2072 11.4749 12.0142 11.4749V10.0869H14.2801ZM11.0323 9.76744C11.0323 9.72338 11.0281 9.67931 11.0197 9.63525C11.0197 9.59119 11.0197 9.5508 11.0197 9.51408V9.26071C11.0113 9.09914 11.0071 8.94492 11.0071 8.79804C11.0071 8.65116 11.0029 8.51163 10.9945 8.37944C10.9861 8.31334 10.9819 8.25459 10.9819 8.20318C10.9819 8.14443 10.9777 8.08568 10.9693 8.02693C10.9693 7.97552 10.9651 7.92778 10.9567 7.88372C10.9567 7.83231 10.9567 7.78825 10.9567 7.75153C10.9567 7.71481 10.9525 7.68176 10.9441 7.65239C10.9441 7.62301 10.9441 7.59731 10.9441 7.57528V7.5202C10.9358 7.5202 10.9316 7.52387 10.9316 7.53121V7.57528C10.9316 7.59731 10.9274 7.62301 10.919 7.65239C10.919 7.68176 10.919 7.71481 10.919 7.75153C10.919 7.78825 10.9148 7.83231 10.9064 7.88372C10.9064 7.92778 10.9064 7.97552 10.9064 8.02693C10.898 8.08568 10.8938 8.14443 10.8938 8.20318C10.8938 8.25459 10.8896 8.31334 10.8812 8.37944C10.8728 8.51163 10.8686 8.65116 10.8686 8.79804C10.8686 8.94492 10.8644 9.09914 10.856 9.26071V9.51408C10.856 9.5508 10.8518 9.59119 10.8434 9.63525C10.8434 9.67931 10.8434 9.72338 10.8434 9.76744V10.7919C10.8434 10.814 10.8434 10.836 10.8434 10.858C10.8518 10.88 10.856 10.8984 10.856 10.9131V11.2876C10.856 11.3684 10.856 11.4492 10.856 11.53C10.8644 11.6034 10.8686 11.6769 10.8686 11.7503C10.8686 11.8311 10.8686 11.9082 10.8686 11.9816C10.877 12.0477 10.8812 12.1102 10.8812 12.1689C10.8896 12.235 10.8938 12.2974 10.8938 12.3562C10.8938 12.4149 10.898 12.47 10.9064 12.5214C10.9064 12.5802 10.9064 12.6316 10.9064 12.6756C10.9148 12.7197 10.919 12.7601 10.919 12.7968C10.919 12.8335 10.919 12.8666 10.919 12.896C10.9274 12.9253 10.9316 12.951 10.9316 12.9731V13.0282C10.9316 13.0355 10.9358 13.0392 10.9441 13.0392V12.9731C10.9441 12.951 10.9441 12.9253 10.9441 12.896C10.9525 12.8666 10.9567 12.8335 10.9567 12.7968C10.9567 12.7601 10.9567 12.7197 10.9567 12.6756C10.9651 12.6316 10.9693 12.5802 10.9693 12.5214C10.9777 12.47 10.9819 12.4149 10.9819 12.3562C10.9819 12.2974 10.9861 12.235 10.9945 12.1689C10.9945 12.1102 10.9945 12.0477 10.9945 11.9816C11.0029 11.9082 11.0071 11.8311 11.0071 11.7503C11.0071 11.6769 11.0071 11.6034 11.0071 11.53C11.0155 11.4492 11.0197 11.3684 11.0197 11.2876V11.0453C11.0197 10.9865 11.0239 10.9425 11.0323 10.9131V9.76744ZM13.7766 11.3647C13.7682 11.2913 13.764 11.2252 13.764 11.1665C13.764 11.1004 13.7598 11.0379 13.7514 10.9792C13.743 10.869 13.7304 10.7772 13.7137 10.7038C13.7137 10.6891 13.7095 10.6744 13.7011 10.6597C13.7011 10.645 13.7011 10.634 13.7011 10.6267V10.5936L13.6885 10.6047V10.6267C13.6885 10.634 13.6843 10.645 13.6759 10.6597C13.6759 10.6744 13.6759 10.6891 13.6759 10.7038C13.6591 10.7772 13.6465 10.869 13.6381 10.9792C13.6297 11.0379 13.6255 11.1004 13.6255 11.1665C13.6255 11.2252 13.6213 11.2913 13.6129 11.3647V11.4749C13.6129 11.4969 13.6087 11.519 13.6004 11.541C13.6004 11.5557 13.6004 11.5704 13.6004 11.5851V12.0477C13.6004 12.0698 13.6045 12.0881 13.6129 12.1028V12.2681C13.6129 12.3048 13.6129 12.3378 13.6129 12.3672C13.6213 12.3966 13.6255 12.4296 13.6255 12.4663C13.6255 12.5031 13.6255 12.5361 13.6255 12.5655C13.6339 12.5949 13.6381 12.6242 13.6381 12.6536C13.6465 12.683 13.6507 12.7124 13.6507 12.7417C13.6507 12.7638 13.6549 12.7858 13.6633 12.8078C13.6633 12.8299 13.6633 12.8519 13.6633 12.8739C13.6717 12.896 13.6759 12.9143 13.6759 12.929C13.6759 12.9437 13.6759 12.9584 13.6759 12.9731C13.6843 12.9878 13.6885 12.9988 13.6885 13.0061V13.0282C13.6885 13.0355 13.6927 13.0392 13.7011 13.0392V13.0061C13.7011 12.9988 13.7011 12.9878 13.7011 12.9731C13.7095 12.9584 13.7137 12.9437 13.7137 12.929C13.7137 12.9143 13.7137 12.896 13.7137 12.8739C13.722 12.8519 13.7262 12.8299 13.7262 12.8078C13.7346 12.7858 13.7388 12.7638 13.7388 12.7417C13.7388 12.7124 13.743 12.683 13.7514 12.6536C13.7514 12.6242 13.7514 12.5949 13.7514 12.5655C13.7598 12.5361 13.764 12.5031 13.764 12.4663C13.764 12.4296 13.764 12.3966 13.764 12.3672C13.7724 12.3378 13.7766 12.3048 13.7766 12.2681V12.1579C13.7766 12.1285 13.7808 12.1102 13.7892 12.1028V11.5851C13.7892 11.5704 13.785 11.5557 13.7766 11.541C13.7766 11.519 13.7766 11.4969 13.7766 11.4749V11.3647Z" fill="#F4EDE8"/>
<path d="M18.8534 10.2962C18.996 10.2962 19.1135 10.3219 19.2058 10.3733C19.1135 10.4247 19.0338 10.4945 18.9667 10.5826C18.9079 10.6707 18.8701 10.7662 18.8534 10.869V12.5324C18.845 12.7674 18.7862 12.9878 18.6771 13.1934C18.5764 13.3917 18.4379 13.5679 18.2617 13.7222C18.0855 13.869 17.8798 13.9865 17.6448 14.0747C17.4099 14.1628 17.1581 14.2069 16.8895 14.2069C16.621 14.2069 16.3692 14.1628 16.1342 14.0747C15.8992 13.9865 15.6936 13.869 15.5174 13.7222C15.3411 13.5679 15.1985 13.3917 15.0894 13.1934C14.9886 12.9878 14.9341 12.7674 14.9257 12.5324V10.869C14.9005 10.6414 14.783 10.4761 14.5732 10.3733C14.6655 10.3219 14.783 10.2962 14.9257 10.2962V8.17013C14.9341 7.94247 14.9886 7.72583 15.0894 7.5202C15.1985 7.31457 15.3411 7.13831 15.5174 6.99143C15.6936 6.83721 15.8992 6.71603 16.1342 6.62791C16.3692 6.53978 16.621 6.49572 16.8895 6.49572C17.1581 6.49572 17.4099 6.53978 17.6448 6.62791C17.8798 6.71603 18.0855 6.83721 18.2617 6.99143C18.4379 7.13831 18.5764 7.31457 18.6771 7.5202C18.7862 7.72583 18.845 7.94247 18.8534 8.17013V10.2962ZM15.6055 9.89963C15.6055 9.86291 15.6013 9.82987 15.5929 9.80049C15.5929 9.76377 15.5929 9.72705 15.5929 9.69033V9.48103C15.5845 9.34149 15.5803 9.2093 15.5803 9.08446C15.5803 8.95961 15.5761 8.84211 15.5677 8.73195C15.5593 8.68054 15.5551 8.62913 15.5551 8.57772C15.5551 8.52632 15.5509 8.47858 15.5425 8.43452C15.5425 8.39045 15.5383 8.35006 15.53 8.31334C15.53 8.27662 15.53 8.24357 15.53 8.2142C15.53 8.17748 15.5258 8.1481 15.5174 8.12607C15.5174 8.0967 15.5174 8.07466 15.5174 8.05998V8.0049C15.509 8.0049 15.5048 8.00857 15.5048 8.01591V8.05998C15.5048 8.07466 15.5006 8.0967 15.4922 8.12607C15.4922 8.1481 15.4922 8.17748 15.4922 8.2142C15.4922 8.24357 15.488 8.27662 15.4796 8.31334C15.4796 8.35006 15.4796 8.39045 15.4796 8.43452C15.4712 8.47858 15.467 8.52632 15.467 8.57772C15.467 8.62913 15.4628 8.68054 15.4544 8.73195C15.446 8.84211 15.4418 8.95961 15.4418 9.08446C15.4418 9.2093 15.4376 9.34149 15.4292 9.48103V9.69033C15.4292 9.72705 15.4251 9.76377 15.4167 9.80049C15.4167 9.82987 15.4167 9.86291 15.4167 9.89963V10.7699C15.4167 10.8213 15.4209 10.858 15.4292 10.88V11.1995C15.4292 11.2656 15.4292 11.3317 15.4292 11.3978C15.4376 11.4639 15.4418 11.5263 15.4418 11.5851C15.4418 11.6512 15.4418 11.7136 15.4418 11.7723C15.4502 11.8237 15.4544 11.8788 15.4544 11.9376C15.4628 11.9963 15.467 12.0514 15.467 12.1028C15.467 12.1469 15.4712 12.1909 15.4796 12.235C15.4796 12.2791 15.4796 12.3195 15.4796 12.3562C15.488 12.3929 15.4922 12.4296 15.4922 12.4663C15.4922 12.5031 15.4922 12.5361 15.4922 12.5655C15.5006 12.5875 15.5048 12.6059 15.5048 12.6206V12.6536C15.5048 12.661 15.509 12.6646 15.5174 12.6646V12.6206C15.5174 12.6059 15.5174 12.5875 15.5174 12.5655C15.5258 12.5361 15.53 12.5031 15.53 12.4663C15.53 12.4296 15.53 12.3929 15.53 12.3562C15.5383 12.3195 15.5425 12.2791 15.5425 12.235C15.5509 12.1909 15.5551 12.1469 15.5551 12.1028C15.5551 12.0514 15.5593 11.9963 15.5677 11.9376C15.5677 11.8788 15.5677 11.8237 15.5677 11.7723C15.5761 11.7136 15.5803 11.6512 15.5803 11.5851C15.5803 11.5263 15.5803 11.4639 15.5803 11.3978C15.5887 11.3317 15.5929 11.2656 15.5929 11.1995V10.88C15.6013 10.858 15.6055 10.8213 15.6055 10.7699V9.89963ZM17.6826 8.2142C17.6826 8.11873 17.6784 8.00122 17.67 7.86169C17.6616 7.72215 17.6323 7.58996 17.5819 7.46512C17.5316 7.34027 17.4518 7.23378 17.3427 7.14566C17.242 7.05018 17.0909 7.00245 16.8895 7.00245C16.6881 7.00245 16.5329 7.05018 16.4237 7.14566C16.323 7.23378 16.2475 7.34027 16.1972 7.46512C16.1468 7.58996 16.1174 7.72215 16.109 7.86169C16.1006 8.00122 16.0964 8.11873 16.0964 8.2142V10.2962C16.2391 10.2962 16.3566 10.3219 16.4489 10.3733C16.2391 10.4761 16.1216 10.6414 16.0964 10.869V12.4884C16.0964 12.5838 16.1006 12.7013 16.109 12.8409C16.1174 12.9731 16.1468 13.1053 16.1972 13.2375C16.2475 13.3623 16.323 13.4688 16.4237 13.5569C16.5329 13.645 16.6881 13.6891 16.8895 13.6891C17.0909 13.6891 17.242 13.645 17.3427 13.5569C17.4518 13.4688 17.5316 13.3623 17.5819 13.2375C17.6323 13.1053 17.6616 12.9731 17.67 12.8409C17.6784 12.7013 17.6826 12.5838 17.6826 12.4884V10.869C17.6658 10.6487 17.5483 10.4835 17.3301 10.3733C17.4224 10.3219 17.5399 10.2962 17.6826 10.2962V8.2142ZM18.3624 9.89963C18.3624 9.86291 18.3624 9.82987 18.3624 9.80049C18.3624 9.76377 18.3582 9.72705 18.3498 9.69033V9.48103C18.3498 9.34149 18.3456 9.2093 18.3372 9.08446C18.3372 8.95961 18.333 8.84211 18.3246 8.73195C18.3162 8.68054 18.312 8.62913 18.312 8.57772C18.312 8.52632 18.3079 8.47858 18.2995 8.43452C18.2995 8.39045 18.2953 8.35006 18.2869 8.31334C18.2869 8.27662 18.2869 8.24357 18.2869 8.2142C18.2869 8.17748 18.2827 8.1481 18.2743 8.12607C18.2743 8.0967 18.2743 8.07466 18.2743 8.05998V8.0049C18.2659 8.0049 18.2617 8.00857 18.2617 8.01591V8.05998C18.2617 8.07466 18.2617 8.0967 18.2617 8.12607C18.2617 8.1481 18.2575 8.17748 18.2491 8.2142C18.2491 8.24357 18.2449 8.27662 18.2365 8.31334C18.2365 8.35006 18.2365 8.39045 18.2365 8.43452C18.2281 8.47858 18.2239 8.52632 18.2239 8.57772C18.2239 8.62913 18.2197 8.68054 18.2113 8.73195C18.2029 8.84211 18.1987 8.95961 18.1987 9.08446C18.1987 9.2093 18.1946 9.34149 18.1862 9.48103V9.89963C18.1778 9.97307 18.1736 10.0465 18.1736 10.12C18.1736 10.1934 18.1736 10.2668 18.1736 10.3403C18.1736 10.4137 18.1736 10.4871 18.1736 10.5606C18.1736 10.6267 18.1778 10.6965 18.1862 10.7699V11.1995C18.1862 11.2656 18.1862 11.3317 18.1862 11.3978C18.1946 11.4639 18.1987 11.5263 18.1987 11.5851C18.1987 11.6512 18.1987 11.7136 18.1987 11.7723C18.2071 11.8237 18.2113 11.8788 18.2113 11.9376C18.2197 11.9963 18.2239 12.0514 18.2239 12.1028C18.2239 12.1469 18.2281 12.1909 18.2365 12.235C18.2365 12.2791 18.2365 12.3195 18.2365 12.3562C18.2449 12.3929 18.2491 12.4296 18.2491 12.4663C18.2575 12.5031 18.2617 12.5361 18.2617 12.5655C18.2617 12.5875 18.2617 12.6059 18.2617 12.6206V12.6536C18.2617 12.661 18.2659 12.6646 18.2743 12.6646V12.6206C18.2743 12.6059 18.2743 12.5875 18.2743 12.5655C18.2827 12.5361 18.2869 12.5031 18.2869 12.4663C18.2869 12.4296 18.2869 12.3929 18.2869 12.3562C18.2953 12.3195 18.2995 12.2791 18.2995 12.235C18.3079 12.1909 18.312 12.1469 18.312 12.1028C18.312 12.0514 18.3162 11.9963 18.3246 11.9376C18.3246 11.8788 18.3246 11.8237 18.3246 11.7723C18.333 11.7136 18.3372 11.6512 18.3372 11.5851C18.3372 11.5263 18.3372 11.4639 18.3372 11.3978C18.3456 11.3317 18.3498 11.2656 18.3498 11.1995V10.9902C18.3498 10.9755 18.3498 10.9572 18.3498 10.9351C18.3582 10.9131 18.3624 10.8947 18.3624 10.88V9.89963Z" fill="#F4EDE8"/>
<path d="M23.5249 8.87515C23.5249 9.20563 23.4326 9.50306 23.248 9.76744C23.0633 10.0318 22.8158 10.2375 22.5052 10.3843C22.6563 10.4871 22.7948 10.6083 22.9207 10.7479C23.0466 10.88 23.1515 11.0269 23.2354 11.1885C23.3277 11.3501 23.399 11.5153 23.4494 11.6842C23.4998 11.8531 23.5249 12.0184 23.5249 12.1799V12.8849C23.5165 13.12 23.462 13.3403 23.3613 13.5459C23.2606 13.7442 23.1221 13.9204 22.9458 14.0747C22.7696 14.2215 22.564 14.339 22.329 14.4272C22.094 14.5226 21.8422 14.5704 21.5737 14.5704H20.3904C20.3316 14.5704 20.2813 14.552 20.2393 14.5153C20.2057 14.4786 20.1889 14.4345 20.1889 14.3831C20.1889 14.4345 20.168 14.4786 20.126 14.5153C20.084 14.552 20.0379 14.5704 19.9875 14.5704H19.3203C19.3203 14.5043 19.3329 14.4565 19.3581 14.4272C19.3917 14.3978 19.4252 14.3647 19.4588 14.328C19.4924 14.2987 19.5217 14.2546 19.5469 14.1958C19.5805 14.1371 19.5973 14.0453 19.5973 13.9204V10.847C19.5721 10.6267 19.4546 10.4651 19.2448 10.3623C19.3539 10.3035 19.4714 10.2742 19.5973 10.2742V6.64994C19.5973 6.52509 19.5805 6.43329 19.5469 6.37454C19.5217 6.31579 19.4924 6.27173 19.4588 6.24235C19.4252 6.20563 19.3917 6.17258 19.3581 6.14321C19.3329 6.11383 19.3203 6.0661 19.3203 6H19.9875C20.0379 6 20.084 6.01836 20.126 6.05508C20.168 6.08446 20.1889 6.12485 20.1889 6.17625C20.1889 6.05875 20.2561 6 20.3904 6H21.5737C21.8422 6 22.094 6.04406 22.329 6.13219C22.564 6.22032 22.7696 6.34149 22.9458 6.49572C23.1221 6.64259 23.2606 6.81885 23.3613 7.02448C23.462 7.23011 23.5165 7.44676 23.5249 7.67442V8.87515ZM20.2771 9.69033C20.2771 9.63892 20.2729 9.59119 20.2645 9.54712C20.2645 9.49572 20.2645 9.44798 20.2645 9.40392V9.1175C20.2561 8.92656 20.2519 8.74663 20.2519 8.57772C20.2519 8.40881 20.2477 8.25092 20.2393 8.10404C20.2309 8.02326 20.2267 7.94982 20.2267 7.88372C20.2267 7.81763 20.2225 7.7552 20.2141 7.69645C20.2141 7.6377 20.2099 7.58262 20.2015 7.53121C20.2015 7.47246 20.2015 7.42472 20.2015 7.38801C20.2015 7.34394 20.1973 7.30355 20.1889 7.26683C20.1889 7.23011 20.1889 7.20073 20.1889 7.1787V7.11261C20.1805 7.11995 20.1763 7.1273 20.1763 7.13464V7.1787C20.1763 7.20073 20.1722 7.23011 20.1638 7.26683C20.1638 7.30355 20.1638 7.34394 20.1638 7.38801C20.1638 7.42472 20.1596 7.47246 20.1512 7.53121C20.1512 7.58262 20.1512 7.6377 20.1512 7.69645C20.1428 7.7552 20.1386 7.81763 20.1386 7.88372C20.1386 7.94982 20.1344 8.02326 20.126 8.10404C20.1176 8.25092 20.1134 8.40881 20.1134 8.57772C20.1134 8.74663 20.1092 8.92656 20.1008 9.1175V9.40392C20.1008 9.44798 20.1008 9.49572 20.1008 9.54712C20.1008 9.59119 20.0966 9.63892 20.0882 9.69033V10.869C20.0882 10.8984 20.0882 10.9241 20.0882 10.9461C20.0966 10.9682 20.1008 10.9939 20.1008 11.0233V11.4419C20.1008 11.5373 20.1008 11.6328 20.1008 11.7283C20.1092 11.8164 20.1134 11.9009 20.1134 11.9816C20.1134 12.0624 20.1134 12.1432 20.1134 12.224C20.1218 12.3048 20.126 12.3856 20.126 12.4663C20.1344 12.5031 20.1386 12.5398 20.1386 12.5765C20.1386 12.6059 20.1386 12.6389 20.1386 12.6756C20.1386 12.7124 20.1386 12.7454 20.1386 12.7748C20.147 12.8042 20.1512 12.8335 20.1512 12.8629C20.1512 12.9217 20.1512 12.9804 20.1512 13.0392C20.1596 13.0906 20.1638 13.1383 20.1638 13.1824C20.1638 13.2264 20.1638 13.2668 20.1638 13.3035C20.1722 13.3329 20.1763 13.3586 20.1763 13.3807V13.4357C20.1763 13.4431 20.1805 13.4504 20.1889 13.4578V13.3807C20.1889 13.3586 20.1889 13.3329 20.1889 13.3035C20.1973 13.2668 20.2015 13.2264 20.2015 13.1824C20.2015 13.1383 20.2015 13.0906 20.2015 13.0392C20.2099 12.9804 20.2141 12.9217 20.2141 12.8629C20.2225 12.8335 20.2267 12.8042 20.2267 12.7748C20.2267 12.7454 20.2267 12.7124 20.2267 12.6756C20.2267 12.6389 20.2267 12.6059 20.2267 12.5765C20.2351 12.5398 20.2393 12.5031 20.2393 12.4663C20.2393 12.3856 20.2393 12.3048 20.2393 12.224C20.2477 12.1432 20.2519 12.0624 20.2519 11.9816C20.2519 11.9009 20.2519 11.8164 20.2519 11.7283C20.2603 11.6328 20.2645 11.5373 20.2645 11.4419V11.1665C20.2645 11.1004 20.2687 11.0526 20.2771 11.0233V9.69033ZM22.8703 12.6646C22.8619 12.6867 22.8577 12.7234 22.8577 12.7748V12.9731C22.8577 13.0098 22.8535 13.0428 22.8451 13.0722C22.8451 13.1016 22.8451 13.131 22.8451 13.1603C22.8451 13.1897 22.8409 13.2154 22.8326 13.2375C22.8326 13.2595 22.8326 13.2815 22.8326 13.3035V13.3366C22.8242 13.3439 22.82 13.355 22.82 13.3696V13.4247C22.8116 13.4321 22.8074 13.4394 22.8074 13.4468V13.4688C22.8074 13.4761 22.8032 13.4835 22.7948 13.4908C22.7948 13.4908 22.7948 13.4945 22.7948 13.5018C22.7948 13.5092 22.7906 13.5165 22.7822 13.5239H22.7948C22.7948 13.5239 22.799 13.5165 22.8074 13.5018C22.8074 13.5018 22.8116 13.4945 22.82 13.4798C22.8284 13.4725 22.8326 13.4651 22.8326 13.4578C22.8409 13.4504 22.8451 13.4431 22.8451 13.4357C22.8535 13.4284 22.8577 13.4211 22.8577 13.4137C22.8661 13.4064 22.8703 13.3953 22.8703 13.3807C22.8871 13.366 22.8955 13.3476 22.8955 13.3256C22.9123 13.2962 22.9291 13.2448 22.9458 13.1714C22.9626 13.1273 22.971 13.0979 22.971 13.0832C22.9794 13.0685 22.9836 13.0539 22.9836 13.0392C22.9836 13.0171 22.9878 12.9988 22.9962 12.9841C22.9962 12.9694 22.9962 12.9547 22.9962 12.94C23.0046 12.918 23.0088 12.8996 23.0088 12.8849C23.0172 12.8629 23.0214 12.8299 23.0214 12.7858C23.0298 12.7491 23.034 12.7124 23.034 12.6756C23.034 12.6389 23.0382 12.6022 23.0466 12.5655V12.1028C23.0466 12.0661 23.0424 12.0294 23.034 11.9927C23.034 11.9559 23.0298 11.9192 23.0214 11.8825C23.0214 11.8384 23.0172 11.8054 23.0088 11.7834C23.0088 11.7687 23.0046 11.754 22.9962 11.7393C22.9962 11.7173 22.9962 11.6989 22.9962 11.6842C22.9878 11.6695 22.9836 11.6548 22.9836 11.6401C22.9836 11.6181 22.9794 11.5998 22.971 11.5851C22.971 11.5704 22.9668 11.5557 22.9584 11.541C22.9584 11.5263 22.9584 11.5116 22.9584 11.4969C22.9417 11.4529 22.9333 11.4272 22.9333 11.4198C22.9249 11.3978 22.9123 11.3721 22.8955 11.3427C22.8955 11.3207 22.8871 11.3023 22.8703 11.2876C22.8703 11.2656 22.8619 11.2472 22.8451 11.2326C22.8284 11.2032 22.8158 11.1812 22.8074 11.1665C22.799 11.1591 22.7948 11.1518 22.7948 11.1444H22.7822C22.7822 11.1444 22.7864 11.1518 22.7948 11.1665C22.7948 11.1738 22.7948 11.1812 22.7948 11.1885C22.8032 11.1885 22.8074 11.1922 22.8074 11.1995C22.8074 11.2142 22.8116 11.2289 22.82 11.2436V11.2987C22.8284 11.3133 22.8326 11.3317 22.8326 11.3537C22.8326 11.3905 22.8367 11.4162 22.8451 11.4308V11.508C22.8535 11.5373 22.8577 11.5667 22.8577 11.5961C22.8577 11.6255 22.8577 11.6585 22.8577 11.6952V11.7944C22.8577 11.8091 22.8577 11.8274 22.8577 11.8494C22.8661 11.8641 22.8703 11.8788 22.8703 11.8935V12.6646ZM22.3542 12.1799C22.3542 12.0845 22.35 11.9486 22.3416 11.7723C22.3332 11.5961 22.3038 11.4198 22.2535 11.2436C22.2031 11.0673 22.1234 10.9168 22.0143 10.7919C21.9136 10.6597 21.7625 10.5936 21.5611 10.5936H21.1079C21.0156 10.5936 20.9359 10.623 20.8687 10.6818C20.8016 10.7405 20.768 10.8103 20.768 10.8911V13.7552C20.768 13.836 20.8016 13.9058 20.8687 13.9645C20.9359 14.0159 21.0156 14.0453 21.1079 14.0526H21.5611C21.7625 14.0526 21.9136 14.0086 22.0143 13.9204C22.1234 13.825 22.2031 13.7148 22.2535 13.59C22.3038 13.4651 22.3332 13.3329 22.3416 13.1934C22.35 13.0539 22.3542 12.9364 22.3542 12.8409V12.1799ZM22.3542 7.71848C22.3542 7.62301 22.35 7.50918 22.3416 7.37699C22.3332 7.23745 22.3038 7.10526 22.2535 6.98042C22.2031 6.85557 22.1234 6.74908 22.0143 6.66095C21.9136 6.56548 21.7625 6.51775 21.5611 6.51775H21.1079C21.0156 6.51775 20.9359 6.54712 20.8687 6.60588C20.8016 6.66463 20.768 6.73439 20.768 6.81518V9.77846C20.768 9.85924 20.8016 9.92901 20.8687 9.98776C20.9359 10.0465 21.0156 10.0759 21.1079 10.0759H21.5611C21.7625 10.0759 21.9136 10.0318 22.0143 9.9437C22.1234 9.85557 22.2031 9.74908 22.2535 9.62423C22.3038 9.49204 22.3332 9.35985 22.3416 9.22766C22.35 9.08813 22.3542 8.97062 22.3542 8.87515V7.71848ZM22.9207 9.17258C22.9375 9.12852 22.9458 9.09914 22.9458 9.08446C22.9626 9.05508 22.971 9.0257 22.971 8.99633C22.9794 8.98164 22.9836 8.96695 22.9836 8.95226C22.9836 8.93023 22.9878 8.91187 22.9962 8.89719C22.9962 8.8825 22.9962 8.86781 22.9962 8.85312C23.0046 8.83109 23.0088 8.80906 23.0088 8.78703C23.0172 8.76499 23.0214 8.72827 23.0214 8.67687C23.0298 8.64015 23.034 8.60343 23.034 8.56671C23.034 8.52999 23.0382 8.49327 23.0466 8.45655V8.2142C23.0466 8.13342 23.0466 8.0563 23.0466 7.98286C23.0466 7.90208 23.0424 7.82497 23.034 7.75153C23.0256 7.7295 23.0214 7.71114 23.0214 7.69645C23.0214 7.67442 23.0172 7.65606 23.0088 7.64137C23.0088 7.58996 23.0046 7.55324 22.9962 7.53121C22.9878 7.49449 22.9794 7.46144 22.971 7.43207C22.971 7.40269 22.9668 7.37332 22.9584 7.34394C22.9417 7.29988 22.9333 7.2705 22.9333 7.25581C22.9165 7.22644 22.9081 7.20441 22.9081 7.18972C22.8913 7.16034 22.8787 7.13831 22.8703 7.12362C22.8703 7.10159 22.8619 7.08323 22.8451 7.06854C22.8367 7.04651 22.8242 7.02081 22.8074 6.99143L22.7822 6.9694V6.98042C22.7822 6.98776 22.7822 6.99143 22.7822 6.99143C22.7906 6.99143 22.7948 6.9951 22.7948 7.00245C22.8032 7.00979 22.8074 7.02081 22.8074 7.0355C22.8074 7.05018 22.8116 7.06487 22.82 7.07956V7.13464C22.8284 7.14933 22.8326 7.17136 22.8326 7.20073C22.8326 7.21542 22.8326 7.23011 22.8326 7.2448C22.8409 7.25214 22.8451 7.26316 22.8451 7.27785V7.35496C22.8535 7.38433 22.8577 7.41371 22.8577 7.44308C22.8577 7.47246 22.8577 7.50551 22.8577 7.54223V7.65239C22.8577 7.66707 22.8577 7.68543 22.8577 7.70747C22.8661 7.72215 22.8703 7.73684 22.8703 7.75153V8.56671C22.8619 8.58874 22.8577 8.62546 22.8577 8.67687V8.88617C22.8577 8.92289 22.8535 8.95594 22.8451 8.98531C22.8451 9.01469 22.8451 9.04406 22.8451 9.07344C22.8451 9.10282 22.8409 9.13219 22.8326 9.16157C22.8326 9.1836 22.8326 9.20563 22.8326 9.22766C22.8326 9.26438 22.8284 9.28641 22.82 9.29376V9.35985C22.8116 9.35985 22.8074 9.3672 22.8074 9.38189V9.40392C22.8074 9.41126 22.8032 9.4186 22.7948 9.42595C22.7948 9.42595 22.7948 9.42962 22.7948 9.43696C22.7948 9.44431 22.7906 9.45165 22.7822 9.459L22.8074 9.43696C22.8074 9.42962 22.8074 9.42595 22.8074 9.42595C22.8158 9.4186 22.82 9.41126 22.82 9.40392C22.8284 9.40392 22.8326 9.39657 22.8326 9.38189C22.8409 9.38189 22.8451 9.37454 22.8451 9.35985C22.8535 9.35985 22.8577 9.35251 22.8577 9.33782C22.8661 9.33048 22.8703 9.31946 22.8703 9.30477C22.8871 9.29009 22.8955 9.27173 22.8955 9.24969C22.9123 9.20563 22.9207 9.17993 22.9207 9.17258Z" fill="#F4EDE8"/>
<path d="M28.2865 13.5459C28.3201 13.6707 28.3578 13.7625 28.3998 13.8213C28.4417 13.88 28.4837 13.9278 28.5257 13.9645C28.5676 14.0012 28.6054 14.0343 28.639 14.0636C28.6725 14.093 28.6977 14.1408 28.7145 14.2069H28.0473C27.9886 14.2069 27.934 14.1885 27.8836 14.1518C27.8417 14.1151 27.8165 14.071 27.8081 14.0196C27.8165 14.071 27.8039 14.1151 27.7703 14.1518C27.7368 14.1885 27.6948 14.2069 27.6445 14.2069H26.9773C26.9605 14.1408 26.9647 14.093 26.9899 14.0636C27.015 14.0343 27.0402 14.0049 27.0654 13.9755C27.0906 13.9388 27.1115 13.8911 27.1283 13.8323C27.1451 13.7662 27.1409 13.6671 27.1157 13.5349V13.5239L26.8388 12.2791C26.822 12.2056 26.7758 12.1432 26.7003 12.0918C26.6248 12.033 26.5409 12.0037 26.4485 12.0037H25.5799C25.4876 12.0037 25.4037 12.033 25.3282 12.0918C25.2526 12.1432 25.2065 12.2056 25.1897 12.2791L24.9253 13.5239V13.5349C24.9001 13.6671 24.8917 13.7662 24.9001 13.8323C24.9169 13.8911 24.9379 13.9388 24.9631 13.9755C24.9967 14.0049 25.0218 14.0343 25.0386 14.0636C25.0638 14.093 25.0722 14.1408 25.0638 14.2069H24.3966C24.3378 14.2069 24.2917 14.1885 24.2581 14.1518C24.2245 14.1151 24.212 14.071 24.2204 14.0196C24.212 14.071 24.1868 14.1151 24.1448 14.1518C24.1029 14.1885 24.0525 14.2069 23.9938 14.2069H23.3266C23.3349 14.1408 23.3559 14.093 23.3895 14.0636C23.4231 14.0343 23.4608 14.0012 23.5028 13.9645C23.5448 13.9278 23.5867 13.88 23.6287 13.8213C23.6706 13.7625 23.7084 13.6707 23.742 13.5459L24.3085 10.869C24.3253 10.7662 24.3127 10.6707 24.2707 10.5826C24.2287 10.4945 24.1616 10.4247 24.0693 10.3733C24.2036 10.3219 24.3253 10.2962 24.4344 10.2962L25.1141 7.15667C25.1393 7.03182 25.1435 6.94002 25.1267 6.88127C25.1099 6.81518 25.089 6.76744 25.0638 6.73807C25.0386 6.70135 25.0134 6.6683 24.9883 6.63892C24.9631 6.60955 24.9589 6.56181 24.9757 6.49572H25.8191C25.945 6.5104 26.0079 6.57283 26.0079 6.68299C26.0079 6.63158 26.0247 6.59119 26.0583 6.56181C26.1003 6.52509 26.1464 6.50306 26.1968 6.49572H27.0528C27.0696 6.56181 27.0654 6.60955 27.0402 6.63892C27.0234 6.6683 27.0024 6.70135 26.9773 6.73807C26.9521 6.76744 26.9311 6.81518 26.9143 6.88127C26.8975 6.94002 26.9017 7.03182 26.9269 7.15667L27.5941 10.2962C27.6612 10.2962 27.7242 10.3035 27.7829 10.3182C27.8417 10.3329 27.9004 10.3513 27.9592 10.3733C27.7745 10.4761 27.6948 10.6414 27.72 10.869L28.2865 13.5459ZM25.2652 9.6022C25.282 9.55814 25.2904 9.51775 25.2904 9.48103C25.2988 9.43696 25.3072 9.39657 25.3156 9.35985C25.3575 9.19094 25.3911 9.03305 25.4163 8.88617C25.4414 8.73195 25.4666 8.59241 25.4918 8.46756C25.5086 8.40881 25.517 8.35006 25.517 8.29131C25.5254 8.23256 25.5338 8.17381 25.5422 8.11506C25.5506 8.06365 25.5589 8.01591 25.5673 7.97185C25.5757 7.92778 25.5841 7.88739 25.5925 7.85067C25.6009 7.81395 25.6051 7.78091 25.6051 7.75153C25.6051 7.71481 25.6093 7.68543 25.6177 7.6634V7.61934L25.6051 7.6634C25.5967 7.68543 25.5883 7.71114 25.5799 7.74051C25.5715 7.76989 25.5631 7.80294 25.5547 7.83966C25.538 7.87638 25.5254 7.92044 25.517 7.97185C25.5086 8.01591 25.496 8.05998 25.4792 8.10404C25.4624 8.16279 25.4456 8.22154 25.4289 8.28029C25.4205 8.33905 25.4079 8.3978 25.3911 8.45655C25.3491 8.5814 25.3072 8.71726 25.2652 8.86414C25.2316 9.00367 25.1939 9.15789 25.1519 9.32681C25.1519 9.37087 25.1477 9.41126 25.1393 9.44798C25.1309 9.4847 25.1183 9.52509 25.1016 9.56916C25.0932 9.61322 25.0848 9.65728 25.0764 9.70135C25.068 9.73807 25.0596 9.77846 25.0512 9.82252C25.026 9.9033 25.0008 9.98776 24.9757 10.0759C24.9589 10.164 24.9421 10.2521 24.9253 10.3403C24.9085 10.4211 24.8875 10.5055 24.8624 10.5936C24.8456 10.6818 24.8288 10.7662 24.812 10.847C24.8036 10.869 24.7994 10.8911 24.7994 10.9131C24.7994 10.9278 24.7952 10.9461 24.7868 10.9682C24.7701 11.0269 24.7617 11.071 24.7617 11.1004C24.7365 11.1738 24.7197 11.2546 24.7113 11.3427C24.6945 11.4235 24.6777 11.5043 24.661 11.5851C24.6442 11.6659 24.6316 11.7393 24.6232 11.8054C24.598 11.9743 24.5728 12.1138 24.5477 12.224C24.5309 12.2827 24.5183 12.3415 24.5099 12.4002C24.5015 12.459 24.4931 12.5177 24.4847 12.5765C24.4679 12.6279 24.4553 12.6793 24.4469 12.7307C24.4469 12.7748 24.4428 12.8152 24.4344 12.8519C24.426 12.8886 24.4218 12.9217 24.4218 12.951C24.4218 12.9804 24.4176 13.0061 24.4092 13.0282C24.4092 13.0428 24.405 13.0539 24.3966 13.0612C24.3966 13.0612 24.3966 13.0649 24.3966 13.0722V13.0832C24.405 13.0832 24.4092 13.0796 24.4092 13.0722C24.4092 13.0575 24.4134 13.0428 24.4218 13.0282C24.4302 13.0135 24.4344 12.9914 24.4344 12.9621C24.4428 12.9253 24.4553 12.8886 24.4721 12.8519C24.4889 12.8152 24.5015 12.7748 24.5099 12.7307C24.5267 12.6867 24.5435 12.6389 24.5602 12.5875C24.577 12.5361 24.5896 12.481 24.598 12.4223C24.6148 12.3635 24.6274 12.3048 24.6358 12.246C24.6526 12.1873 24.6693 12.1248 24.6861 12.0588C24.7113 11.9853 24.7323 11.9119 24.7491 11.8384C24.7659 11.765 24.7826 11.6879 24.7994 11.6071C24.8246 11.5263 24.8498 11.4455 24.875 11.3647C24.8834 11.328 24.8917 11.2913 24.9001 11.2546C24.9085 11.2105 24.9169 11.1701 24.9253 11.1334L24.9631 11.0012C24.9715 10.9792 24.9757 10.9572 24.9757 10.9351C24.9757 10.9131 24.9799 10.8911 24.9883 10.869C25.005 10.7882 25.026 10.7075 25.0512 10.6267C25.0764 10.5386 25.0974 10.4504 25.1141 10.3623C25.1309 10.2815 25.1477 10.1971 25.1645 10.1089C25.1813 10.0208 25.1981 9.93635 25.2149 9.85557C25.2232 9.81151 25.2316 9.76744 25.24 9.72338C25.2484 9.67931 25.2568 9.63892 25.2652 9.6022ZM26.3352 11.4859C26.4276 11.4786 26.4989 11.4492 26.5492 11.3978C26.608 11.339 26.629 11.2693 26.6122 11.1885L26.5367 10.869C26.5031 10.7662 26.4443 10.6707 26.3604 10.5826C26.2849 10.4945 26.1926 10.4247 26.0835 10.3733C26.1842 10.3219 26.2933 10.2962 26.4108 10.2962L26.0079 8.41248L25.6051 10.2962C25.7142 10.2962 25.8275 10.3219 25.945 10.3733C25.8275 10.4247 25.7268 10.4945 25.6429 10.5826C25.5673 10.6707 25.517 10.7662 25.4918 10.869L25.4289 11.1885C25.4121 11.2693 25.4289 11.339 25.4792 11.3978C25.5296 11.4492 25.5967 11.4786 25.6806 11.4859H26.3352ZM27.6067 13.0282C27.6067 13.0428 27.6067 13.0539 27.6067 13.0612C27.6151 13.0612 27.6193 13.0649 27.6193 13.0722V13.0282C27.6109 13.0061 27.6067 12.9804 27.6067 12.951C27.6067 12.9217 27.6025 12.8886 27.5941 12.8519C27.5857 12.8152 27.5773 12.7748 27.5689 12.7307C27.5689 12.6793 27.5605 12.6279 27.5438 12.5765C27.5354 12.5177 27.527 12.459 27.5186 12.4002C27.5102 12.3415 27.4976 12.2827 27.4808 12.224C27.4556 12.1138 27.4305 11.9743 27.4053 11.8054C27.3885 11.7393 27.3717 11.6659 27.3549 11.5851C27.3465 11.5043 27.3339 11.4235 27.3172 11.3427C27.3004 11.2987 27.2878 11.2583 27.2794 11.2215C27.2794 11.1848 27.271 11.1444 27.2542 11.1004C27.2542 11.071 27.2458 11.0269 27.229 10.9682C27.229 10.9461 27.2248 10.9278 27.2164 10.9131C27.2164 10.8911 27.2164 10.869 27.2164 10.847C27.1997 10.7662 27.1787 10.6818 27.1535 10.5936C27.1367 10.5055 27.1199 10.4211 27.1032 10.3403C27.0864 10.2521 27.0654 10.164 27.0402 10.0759C27.0234 9.98776 27.0024 9.9033 26.9773 9.82252C26.9689 9.77846 26.9605 9.73807 26.9521 9.70135C26.9437 9.65728 26.9353 9.61322 26.9269 9.56916C26.9101 9.52509 26.8975 9.4847 26.8891 9.44798C26.8808 9.41126 26.8724 9.37087 26.864 9.32681C26.822 9.15789 26.78 9.00367 26.7381 8.86414C26.7045 8.71726 26.6751 8.5814 26.65 8.45655C26.6332 8.3978 26.6164 8.33905 26.5996 8.28029C26.5828 8.22154 26.566 8.16279 26.5492 8.10404C26.5325 8.05998 26.5157 8.01591 26.4989 7.97185C26.4905 7.92044 26.4779 7.87638 26.4611 7.83966C26.4527 7.80294 26.4443 7.76989 26.436 7.74051C26.4276 7.71114 26.4192 7.68543 26.4108 7.6634L26.3982 7.61934V7.6634C26.4066 7.70012 26.4192 7.76255 26.436 7.85067C26.436 7.88739 26.4401 7.92778 26.4485 7.97185C26.4569 8.01591 26.4653 8.06365 26.4737 8.11506C26.4821 8.17381 26.4905 8.23256 26.4989 8.29131C26.5073 8.35006 26.5199 8.40881 26.5367 8.46756C26.5618 8.59241 26.587 8.73195 26.6122 8.88617C26.6374 9.03305 26.6667 9.19094 26.7003 9.35985C26.7087 9.39657 26.7129 9.43696 26.7129 9.48103C26.7213 9.51775 26.7339 9.55814 26.7507 9.6022C26.7591 9.63892 26.7675 9.67931 26.7758 9.72338C26.7842 9.76744 26.7926 9.81151 26.801 9.85557C26.8178 9.93635 26.8346 10.0208 26.8514 10.1089C26.8766 10.1971 26.8975 10.2815 26.9143 10.3623C26.9311 10.4504 26.9521 10.5386 26.9773 10.6267C27.0024 10.7075 27.0234 10.7882 27.0402 10.869C27.0486 10.8911 27.0528 10.9131 27.0528 10.9351C27.0528 10.9572 27.057 10.9792 27.0654 11.0012L27.1032 11.1334C27.1115 11.1701 27.1199 11.2105 27.1283 11.2546C27.1367 11.2913 27.1451 11.328 27.1535 11.3647C27.1787 11.4455 27.1997 11.5263 27.2164 11.6071C27.2332 11.6879 27.25 11.765 27.2668 11.8384C27.2836 11.9119 27.3004 11.9853 27.3172 12.0588C27.3423 12.1248 27.3633 12.1873 27.3801 12.246C27.3969 12.3048 27.4137 12.3635 27.4305 12.4223C27.4472 12.481 27.464 12.5361 27.4808 12.5875C27.506 12.6903 27.5312 12.7785 27.5563 12.8519C27.5731 12.8886 27.5815 12.9253 27.5815 12.9621C27.5899 12.9914 27.5983 13.0135 27.6067 13.0282Z" fill="#F4EDE8"/>
<path d="M33.5683 14.6695C33.6606 14.6842 33.7236 14.7099 33.7571 14.7466C33.7991 14.7834 33.8285 14.8201 33.8453 14.8568C33.862 14.9009 33.8704 14.9486 33.8704 15C33.6019 15 33.3501 14.9706 33.1151 14.9119C32.8801 14.8531 32.6703 14.7577 32.4857 14.6255C32.3094 14.4933 32.1668 14.3207 32.0577 14.1077C31.957 13.8947 31.9066 13.634 31.9066 13.3256V11.8164C31.9066 11.7209 31.9024 11.6034 31.894 11.4639C31.8856 11.3244 31.8563 11.1922 31.8059 11.0673C31.7555 10.9425 31.6758 10.836 31.5667 10.7479C31.466 10.6524 31.3149 10.6047 31.1135 10.6047H30.5974C30.5219 10.6193 30.4547 10.6561 30.396 10.7148C30.3456 10.7662 30.3204 10.8286 30.3204 10.9021V13.5349C30.3204 13.6671 30.333 13.7662 30.3582 13.8323C30.3918 13.8911 30.4253 13.9388 30.4589 13.9755C30.4925 14.0049 30.5219 14.0343 30.547 14.0636C30.5806 14.093 30.5974 14.1408 30.5974 14.2069H29.9302C29.8798 14.2069 29.8337 14.1885 29.7917 14.1518C29.7498 14.1151 29.7288 14.0747 29.7288 14.0306C29.7288 14.0747 29.7078 14.1151 29.6658 14.1518C29.6323 14.1885 29.5861 14.2069 29.5274 14.2069H28.8727C28.8727 14.1408 28.8853 14.093 28.9105 14.0636C28.9441 14.0343 28.9776 14.0049 29.0112 13.9755C29.0448 13.9388 29.0742 13.8911 29.0993 13.8323C29.1329 13.7736 29.1497 13.6818 29.1497 13.5569V10.869C29.1245 10.6414 29.007 10.4761 28.7972 10.3733C28.8895 10.3219 29.007 10.2962 29.1497 10.2962V7.14566C29.1497 7.02081 29.1329 6.92901 29.0993 6.87026C29.0742 6.81151 29.0448 6.76744 29.0112 6.73807C28.9776 6.70135 28.9441 6.6683 28.9105 6.63892C28.8853 6.60955 28.8727 6.56181 28.8727 6.49572H29.5399C29.5903 6.49572 29.6365 6.51408 29.6784 6.5508C29.7204 6.58017 29.7414 6.62056 29.7414 6.67197C29.7414 6.55447 29.8085 6.49572 29.9428 6.49572H31.1261C31.3947 6.49572 31.6464 6.53978 31.8814 6.62791C32.1164 6.71603 32.322 6.83721 32.4983 6.99143C32.6745 7.13831 32.813 7.31457 32.9137 7.5202C33.0144 7.72583 33.069 7.94247 33.0773 8.17013V8.88617C33.0773 9.19461 32.9934 9.47736 32.8256 9.73439C32.6577 9.99143 32.4311 10.1971 32.1458 10.3513C32.4311 10.4982 32.6577 10.7038 32.8256 10.9682C32.9934 11.2252 33.0773 11.508 33.0773 11.8164V13.2815C33.0773 13.4357 33.0773 13.5936 33.0773 13.7552C33.0857 13.9094 33.1067 14.0526 33.1403 14.1848C33.1739 14.3097 33.2242 14.4162 33.2914 14.5043C33.3585 14.5924 33.4508 14.6475 33.5683 14.6695ZM32.4227 8.6989C32.4143 8.71359 32.4102 8.73195 32.4102 8.75398V9.00734C32.4018 9.03672 32.3976 9.0661 32.3976 9.09547C32.3976 9.1175 32.3976 9.13954 32.3976 9.16157C32.3976 9.17625 32.3934 9.18727 32.385 9.19461C32.385 9.20196 32.385 9.21297 32.385 9.22766V9.29376C32.3766 9.30845 32.3724 9.32681 32.3724 9.34884C32.3724 9.36352 32.3682 9.37821 32.3598 9.3929C32.3598 9.40759 32.3556 9.4186 32.3472 9.42595V9.44798L32.3346 9.47001C32.3346 9.47001 32.343 9.46634 32.3598 9.459V9.44798L32.3724 9.43696C32.3808 9.42962 32.385 9.42595 32.385 9.42595C32.385 9.4186 32.3892 9.41126 32.3976 9.40392C32.406 9.38923 32.4143 9.37454 32.4227 9.35985C32.4311 9.33782 32.4395 9.31946 32.4479 9.30477C32.4563 9.29009 32.4605 9.28274 32.4605 9.28274C32.4605 9.2754 32.4647 9.26438 32.4731 9.24969C32.4815 9.23501 32.4857 9.22399 32.4857 9.21665C32.4857 9.20196 32.4899 9.18727 32.4983 9.17258C32.5067 9.15789 32.5109 9.14688 32.5109 9.13953C32.5109 9.13219 32.5151 9.12118 32.5234 9.10649C32.5234 9.0918 32.5234 9.08078 32.5234 9.07344C32.5318 9.05875 32.536 9.04406 32.536 9.02938C32.5444 9 32.5486 8.97062 32.5486 8.94125C32.557 8.91187 32.5654 8.8825 32.5738 8.85312C32.5822 8.83109 32.5864 8.79804 32.5864 8.75398C32.5864 8.73929 32.5864 8.7246 32.5864 8.70991C32.5948 8.69523 32.599 8.68054 32.599 8.66585V8.28029C32.599 8.23623 32.5948 8.20318 32.5864 8.18115V8.13709C32.5864 8.1224 32.5822 8.11506 32.5738 8.11506C32.5738 8.10771 32.5738 8.0967 32.5738 8.08201C32.5738 8.04529 32.5654 7.99021 32.5486 7.91677C32.5402 7.90208 32.536 7.88739 32.536 7.8727C32.536 7.85802 32.5318 7.84333 32.5234 7.82864C32.5234 7.8213 32.5193 7.81763 32.5109 7.81763C32.5109 7.81028 32.5109 7.80294 32.5109 7.79559C32.5109 7.78825 32.5067 7.78458 32.4983 7.78458C32.4983 7.77723 32.4983 7.76989 32.4983 7.76255C32.4899 7.74786 32.4857 7.73684 32.4857 7.7295C32.4857 7.72215 32.4815 7.71114 32.4731 7.69645C32.4647 7.68176 32.4605 7.67075 32.4605 7.6634C32.4605 7.65606 32.4563 7.64504 32.4479 7.63035C32.4395 7.62301 32.4353 7.61567 32.4353 7.60832C32.4353 7.60098 32.4311 7.59364 32.4227 7.58629C32.406 7.55692 32.3976 7.54223 32.3976 7.54223C32.3892 7.53488 32.385 7.53121 32.385 7.53121C32.385 7.52387 32.3808 7.51652 32.3724 7.50918C32.364 7.50184 32.3598 7.49449 32.3598 7.48715C32.3514 7.4798 32.3472 7.47246 32.3472 7.46512H32.3346C32.3346 7.46512 32.3388 7.47246 32.3472 7.48715V7.50918C32.3556 7.51652 32.3598 7.53121 32.3598 7.55324C32.3598 7.56059 32.3598 7.56793 32.3598 7.57528C32.3682 7.57528 32.3724 7.58262 32.3724 7.59731C32.3724 7.61934 32.3766 7.6377 32.385 7.65239V7.70747C32.385 7.72215 32.385 7.73317 32.385 7.74051C32.3934 7.74786 32.3976 7.75887 32.3976 7.77356C32.3976 7.83966 32.4018 7.89106 32.4102 7.92778V8.10404C32.4185 8.14076 32.4227 8.19951 32.4227 8.28029V8.6989ZM29.8295 9.83354C29.8295 9.79682 29.8253 9.75643 29.8169 9.71236C29.8169 9.6683 29.8169 9.62424 29.8169 9.58017V9.33782C29.8085 9.17625 29.8043 9.02203 29.8043 8.87515C29.8043 8.72827 29.8001 8.58874 29.7917 8.45655C29.7833 8.3978 29.7791 8.33905 29.7791 8.28029C29.7791 8.22154 29.7749 8.16646 29.7665 8.11506C29.7665 8.0563 29.7623 8.0049 29.7539 7.96083C29.7539 7.91677 29.7539 7.87638 29.7539 7.83966C29.7539 7.80294 29.7497 7.76989 29.7414 7.74051C29.7414 7.71114 29.7414 7.68543 29.7414 7.6634V7.60832C29.733 7.60832 29.7288 7.612 29.7288 7.61934V7.6634C29.7288 7.68543 29.7246 7.71114 29.7162 7.74051C29.7162 7.76989 29.7162 7.80294 29.7162 7.83966C29.7162 7.87638 29.712 7.91677 29.7036 7.96083C29.7036 8.0049 29.7036 8.0563 29.7036 8.11506C29.6952 8.16646 29.691 8.22154 29.691 8.28029C29.691 8.33905 29.6868 8.3978 29.6784 8.45655C29.67 8.58874 29.6658 8.72827 29.6658 8.87515C29.6658 9.02203 29.6616 9.17625 29.6532 9.33782V9.58017C29.6532 9.62424 29.649 9.6683 29.6406 9.71236C29.6406 9.75643 29.6406 9.79682 29.6406 9.83354V10.858C29.6406 10.9168 29.6448 10.9608 29.6532 10.9902V11.3537C29.6532 11.4345 29.6532 11.5153 29.6532 11.5961C29.6616 11.6695 29.6658 11.743 29.6658 11.8164C29.6658 11.8972 29.6658 11.9706 29.6658 12.0367C29.6742 12.1028 29.6784 12.1689 29.6784 12.235C29.6868 12.3011 29.691 12.3635 29.691 12.4223C29.691 12.4737 29.6952 12.5288 29.7036 12.5875C29.7036 12.6389 29.7036 12.6867 29.7036 12.7307C29.712 12.7748 29.7162 12.8152 29.7162 12.8519C29.7162 12.8886 29.7162 12.9253 29.7162 12.9621C29.7246 12.9914 29.7288 13.0135 29.7288 13.0282V13.0832C29.7288 13.0906 29.733 13.0942 29.7414 13.0942V13.0282C29.7414 13.0135 29.7414 12.9914 29.7414 12.9621C29.7497 12.9253 29.7539 12.8886 29.7539 12.8519C29.7539 12.8152 29.7539 12.7748 29.7539 12.7307C29.7623 12.6867 29.7665 12.6389 29.7665 12.5875C29.7749 12.5288 29.7791 12.4737 29.7791 12.4223C29.7791 12.3635 29.7833 12.3011 29.7917 12.235C29.7917 12.1689 29.7917 12.1028 29.7917 12.0367C29.8001 11.9706 29.8043 11.8972 29.8043 11.8164C29.8043 11.743 29.8043 11.6695 29.8043 11.5961C29.8127 11.5153 29.8169 11.4345 29.8169 11.3537V11.1114C29.8169 11.0526 29.8211 11.0122 29.8295 10.9902V9.83354ZM31.9066 8.2142C31.9066 8.11873 31.9024 8.00122 31.894 7.86169C31.8856 7.72215 31.8563 7.58996 31.8059 7.46512C31.7555 7.34027 31.6758 7.23378 31.5667 7.14566C31.466 7.05018 31.3149 7.00245 31.1135 7.00245H30.6603C30.568 7.00979 30.4883 7.04284 30.4211 7.10159C30.354 7.16034 30.3204 7.23011 30.3204 7.31089V9.78947C30.3204 9.87026 30.354 9.94002 30.4211 9.99878C30.4883 10.0575 30.568 10.0869 30.6603 10.0869H31.1135C31.3149 10.0869 31.466 10.0428 31.5667 9.95471C31.6758 9.86658 31.7555 9.7601 31.8059 9.63525C31.8563 9.50306 31.8856 9.37087 31.894 9.23868C31.9024 9.09914 31.9066 8.98164 31.9066 8.88617V8.2142ZM32.75 14.2509C32.75 14.2509 32.7458 14.2472 32.7375 14.2399L32.7249 14.2289C32.7165 14.2142 32.7081 14.1995 32.6997 14.1848C32.6997 14.1701 32.6913 14.1554 32.6745 14.1408C32.6661 14.1187 32.6577 14.0967 32.6493 14.0747C32.6409 14.0453 32.6326 14.0122 32.6242 13.9755C32.6074 13.9021 32.599 13.8323 32.599 13.7662C32.5906 13.7295 32.5864 13.6928 32.5864 13.6561C32.5864 13.612 32.5864 13.5643 32.5864 13.5129V12.929C32.5864 12.8776 32.5864 12.8262 32.5864 12.7748C32.5864 12.7234 32.5906 12.6683 32.599 12.6095C32.599 12.5581 32.599 12.5067 32.599 12.4553C32.599 12.4039 32.5948 12.3525 32.5864 12.3011V12.1469C32.5864 12.0734 32.5822 12.022 32.5738 11.9927C32.5738 11.9412 32.5696 11.8935 32.5612 11.8494C32.5612 11.798 32.557 11.7503 32.5486 11.7062C32.5318 11.6034 32.5151 11.5153 32.4983 11.4419C32.4899 11.4051 32.4815 11.3721 32.4731 11.3427C32.4647 11.306 32.4521 11.2693 32.4353 11.2326C32.4185 11.1958 32.406 11.1665 32.3976 11.1444C32.3892 11.1224 32.3766 11.1004 32.3598 11.0783C32.343 11.0563 32.3304 11.0379 32.322 11.0233C32.3136 11.0086 32.3052 10.9939 32.2969 10.9792C32.2885 10.9792 32.2801 10.9755 32.2717 10.9682C32.2633 10.9682 32.2591 10.9645 32.2591 10.9572L32.2717 10.9682C32.2717 10.9755 32.2759 10.9829 32.2843 10.9902C32.2843 10.9976 32.2843 11.0049 32.2843 11.0122C32.2927 11.0122 32.2969 11.0196 32.2969 11.0343C32.3052 11.0416 32.3094 11.049 32.3094 11.0563C32.3094 11.0636 32.3136 11.0747 32.322 11.0894C32.3304 11.1187 32.343 11.1701 32.3598 11.2436C32.3682 11.2803 32.3724 11.317 32.3724 11.3537C32.3808 11.3905 32.3892 11.4272 32.3976 11.4639C32.3976 11.5006 32.3976 11.541 32.3976 11.5851C32.406 11.6218 32.4102 11.6659 32.4102 11.7173V13.0832C32.4102 13.1126 32.4102 13.1383 32.4102 13.1603C32.4185 13.1824 32.4227 13.2081 32.4227 13.2375C32.4227 13.2889 32.4227 13.3403 32.4227 13.3917C32.4311 13.4357 32.4395 13.4798 32.4479 13.5239C32.4563 13.5679 32.4605 13.612 32.4605 13.6561C32.4689 13.7001 32.4773 13.7405 32.4857 13.7772C32.5025 13.8213 32.5151 13.8617 32.5234 13.8984C32.5318 13.9278 32.5444 13.9608 32.5612 13.9976C32.578 14.0343 32.5906 14.0636 32.599 14.0857C32.6074 14.1077 32.62 14.1297 32.6367 14.1518L32.6619 14.1738C32.6703 14.1812 32.6745 14.1885 32.6745 14.1958C32.6745 14.1958 32.6787 14.1995 32.6871 14.2069L32.7375 14.2509H32.75Z" fill="#F4EDE8"/>
<path d="M37.3429 8.88617C37.3429 9.19461 37.259 9.47736 37.0912 9.73439C36.9233 9.99143 36.6967 10.1971 36.4114 10.3513C36.6967 10.4982 36.9233 10.7038 37.0912 10.9682C37.259 11.2252 37.3429 11.508 37.3429 11.8164V12.5324C37.3345 12.7674 37.28 12.9878 37.1793 13.1934C37.0786 13.3917 36.9401 13.5679 36.7639 13.7222C36.5876 13.869 36.382 13.9865 36.147 14.0747C35.912 14.1628 35.6603 14.2069 35.3917 14.2069H34.1958C34.1454 14.2069 34.0993 14.1885 34.0573 14.1518C34.0153 14.1151 33.9944 14.0747 33.9944 14.0306C33.9944 14.0747 33.9734 14.1151 33.9314 14.1518C33.8978 14.1885 33.8517 14.2069 33.7929 14.2069H33.1383C33.1383 14.1408 33.1509 14.093 33.1761 14.0636C33.2097 14.0343 33.2432 14.0049 33.2768 13.9755C33.3104 13.9388 33.3397 13.8911 33.3649 13.8323C33.3985 13.7736 33.4153 13.6818 33.4153 13.5569V10.869C33.3901 10.6414 33.2726 10.4761 33.0628 10.3733C33.1551 10.3219 33.2726 10.2962 33.4153 10.2962V7.14566C33.4153 7.02081 33.3985 6.92901 33.3649 6.87026C33.3397 6.81151 33.3104 6.76744 33.2768 6.73807C33.2432 6.70135 33.2097 6.6683 33.1761 6.63892C33.1509 6.60955 33.1383 6.56181 33.1383 6.49572H33.8055C33.8559 6.49572 33.902 6.51408 33.944 6.5508C33.986 6.58017 34.0069 6.62056 34.0069 6.67197C34.0069 6.55447 34.0741 6.49572 34.2084 6.49572H35.3917C35.6603 6.49572 35.912 6.53978 36.147 6.62791C36.382 6.71603 36.5876 6.83721 36.7639 6.99143C36.9401 7.13831 37.0786 7.31457 37.1793 7.5202C37.28 7.72583 37.3345 7.94247 37.3429 8.17013V8.88617ZM34.0951 9.83354C34.0951 9.79682 34.0909 9.75643 34.0825 9.71236C34.0825 9.6683 34.0825 9.62424 34.0825 9.58017V9.33782C34.0741 9.17625 34.0699 9.02203 34.0699 8.87515C34.0699 8.72827 34.0657 8.58874 34.0573 8.45655C34.0489 8.3978 34.0447 8.33905 34.0447 8.28029C34.0447 8.22154 34.0405 8.16646 34.0321 8.11506C34.0321 8.0563 34.0279 8.0049 34.0195 7.96083C34.0195 7.91677 34.0195 7.87638 34.0195 7.83966C34.0195 7.80294 34.0153 7.76989 34.0069 7.74051C34.0069 7.71114 34.0069 7.68543 34.0069 7.6634V7.60832C33.9985 7.60832 33.9944 7.612 33.9944 7.61934V7.6634C33.9944 7.68543 33.9902 7.71114 33.9818 7.74051C33.9818 7.76989 33.9818 7.80294 33.9818 7.83966C33.9818 7.87638 33.9776 7.91677 33.9692 7.96083C33.9692 8.0049 33.9692 8.0563 33.9692 8.11506C33.9608 8.16646 33.9566 8.22154 33.9566 8.28029C33.9566 8.33905 33.9524 8.3978 33.944 8.45655C33.9356 8.58874 33.9314 8.72827 33.9314 8.87515C33.9314 9.02203 33.9272 9.17625 33.9188 9.33782V9.58017C33.9188 9.62424 33.9146 9.6683 33.9062 9.71236C33.9062 9.75643 33.9062 9.79682 33.9062 9.83354V10.858C33.9062 10.9168 33.9104 10.9608 33.9188 10.9902V11.3537C33.9188 11.4345 33.9188 11.5153 33.9188 11.5961C33.9272 11.6695 33.9314 11.743 33.9314 11.8164C33.9314 11.8972 33.9314 11.9706 33.9314 12.0367C33.9398 12.1028 33.944 12.1689 33.944 12.235C33.9524 12.3011 33.9566 12.3635 33.9566 12.4223C33.9566 12.4737 33.9608 12.5288 33.9692 12.5875C33.9692 12.6389 33.9692 12.6867 33.9692 12.7307C33.9776 12.7748 33.9818 12.8152 33.9818 12.8519C33.9818 12.8886 33.9818 12.9253 33.9818 12.9621C33.9902 12.9914 33.9944 13.0135 33.9944 13.0282V13.0832C33.9944 13.0906 33.9985 13.0942 34.0069 13.0942V13.0282C34.0069 13.0135 34.0069 12.9914 34.0069 12.9621C34.0153 12.9253 34.0195 12.8886 34.0195 12.8519C34.0195 12.8152 34.0195 12.7748 34.0195 12.7307C34.0279 12.6867 34.0321 12.6389 34.0321 12.5875C34.0405 12.5288 34.0447 12.4737 34.0447 12.4223C34.0447 12.3635 34.0489 12.3011 34.0573 12.235C34.0573 12.1689 34.0573 12.1028 34.0573 12.0367C34.0657 11.9706 34.0699 11.8972 34.0699 11.8164C34.0699 11.743 34.0699 11.6695 34.0699 11.5961C34.0783 11.5153 34.0825 11.4345 34.0825 11.3537V11.1114C34.0825 11.0526 34.0867 11.0122 34.0951 10.9902V9.83354ZM36.6883 12.3892C36.6799 12.4039 36.6757 12.4223 36.6757 12.4443V12.6977C36.6673 12.7271 36.6631 12.7564 36.6631 12.7858C36.6631 12.8078 36.6631 12.8299 36.6631 12.8519C36.6631 12.8666 36.6589 12.8776 36.6506 12.8849C36.6506 12.8923 36.6506 12.9033 36.6506 12.918V12.9841C36.6422 12.9988 36.638 13.0171 36.638 13.0392C36.638 13.0539 36.6338 13.0685 36.6254 13.0832C36.6254 13.0979 36.6212 13.1089 36.6128 13.1163V13.1383L36.6002 13.1603C36.6002 13.1603 36.6086 13.1567 36.6254 13.1493V13.1383L36.638 13.1273C36.6464 13.12 36.6506 13.1163 36.6506 13.1163C36.6506 13.1089 36.6548 13.1016 36.6631 13.0942C36.6715 13.0796 36.6799 13.0649 36.6883 13.0502C36.6967 13.0282 36.7051 13.0098 36.7135 12.9951C36.7219 12.9804 36.7261 12.9731 36.7261 12.9731C36.7261 12.9657 36.7303 12.9547 36.7387 12.94C36.7471 12.9253 36.7513 12.9143 36.7513 12.907C36.7513 12.8996 36.7555 12.8886 36.7639 12.8739C36.7722 12.8592 36.7764 12.8482 36.7764 12.8409C36.7764 12.8262 36.7806 12.8115 36.789 12.7968C36.789 12.7821 36.789 12.7711 36.789 12.7638C36.7974 12.7491 36.8016 12.7344 36.8016 12.7197C36.81 12.6903 36.8142 12.661 36.8142 12.6316C36.8226 12.6022 36.831 12.5728 36.8394 12.5435C36.8478 12.5214 36.852 12.4884 36.852 12.4443C36.852 12.4296 36.852 12.4149 36.852 12.4002C36.8604 12.3856 36.8646 12.3709 36.8646 12.3562V11.9706C36.8646 11.9266 36.8604 11.8935 36.852 11.8715V11.8274C36.852 11.8127 36.8478 11.8054 36.8394 11.8054C36.8394 11.798 36.8394 11.7907 36.8394 11.7834C36.8394 11.7466 36.8352 11.7173 36.8268 11.6952C36.8268 11.6659 36.8226 11.6365 36.8142 11.6071C36.8058 11.5924 36.8016 11.5777 36.8016 11.563C36.8016 11.5483 36.7974 11.5337 36.789 11.519C36.789 11.5116 36.7848 11.508 36.7764 11.508C36.7764 11.5006 36.7764 11.4933 36.7764 11.4859C36.7764 11.4786 36.7722 11.4749 36.7639 11.4749C36.7639 11.4676 36.7639 11.4602 36.7639 11.4529C36.7555 11.4382 36.7513 11.4272 36.7513 11.4198C36.7513 11.4125 36.7471 11.4015 36.7387 11.3868C36.7303 11.3721 36.7261 11.3611 36.7261 11.3537C36.7261 11.3464 36.7219 11.3354 36.7135 11.3207C36.7051 11.3133 36.7009 11.306 36.7009 11.2987C36.7009 11.2913 36.6967 11.284 36.6883 11.2766C36.6715 11.2472 36.6631 11.2326 36.6631 11.2326C36.6548 11.2252 36.6506 11.2215 36.6506 11.2215C36.6506 11.2142 36.6464 11.2069 36.638 11.1995C36.6296 11.1922 36.6254 11.1848 36.6254 11.1775L36.6002 11.1554C36.6002 11.1554 36.6044 11.1628 36.6128 11.1775V11.1995C36.6212 11.2069 36.6254 11.2215 36.6254 11.2436C36.6254 11.2509 36.6254 11.2583 36.6254 11.2656C36.6338 11.2656 36.638 11.2729 36.638 11.2876C36.638 11.3097 36.6422 11.328 36.6506 11.3427V11.3978C36.6506 11.4125 36.6506 11.4235 36.6506 11.4308C36.6589 11.4382 36.6631 11.4492 36.6631 11.4639C36.6631 11.53 36.6673 11.5814 36.6757 11.6181V11.7944C36.6841 11.8311 36.6883 11.8898 36.6883 11.9706V12.3892ZM36.1722 11.8164C36.1722 11.7209 36.168 11.6034 36.1596 11.4639C36.1512 11.3244 36.1218 11.1922 36.0715 11.0673C36.0211 10.9425 35.9414 10.836 35.8323 10.7479C35.7316 10.6524 35.5805 10.6047 35.3791 10.6047H34.9259C34.8336 10.612 34.7539 10.645 34.6867 10.7038C34.6196 10.7625 34.586 10.8323 34.586 10.9131V13.3917C34.586 13.4725 34.6196 13.5422 34.6867 13.601C34.7539 13.6597 34.8336 13.6891 34.9259 13.6891H35.3791C35.5805 13.6891 35.7316 13.645 35.8323 13.5569C35.9414 13.4688 36.0211 13.3623 36.0715 13.2375C36.1218 13.1053 36.1512 12.9731 36.1596 12.8409C36.168 12.7013 36.1722 12.5838 36.1722 12.4884V11.8164ZM36.1722 8.2142C36.1722 8.11873 36.168 8.00122 36.1596 7.86169C36.1512 7.72215 36.1218 7.58996 36.0715 7.46512C36.0211 7.34027 35.9414 7.23378 35.8323 7.14566C35.7316 7.05018 35.5805 7.00245 35.3791 7.00245H34.9259C34.8336 7.00979 34.7539 7.04284 34.6867 7.10159C34.6196 7.16034 34.586 7.23011 34.586 7.31089V9.78947C34.586 9.87026 34.6196 9.94002 34.6867 9.99878C34.7539 10.0575 34.8336 10.0869 34.9259 10.0869H35.3791C35.5805 10.0869 35.7316 10.0428 35.8323 9.95471C35.9414 9.86658 36.0211 9.7601 36.0715 9.63525C36.1218 9.50306 36.1512 9.37087 36.1596 9.23868C36.168 9.09914 36.1722 8.98164 36.1722 8.88617V8.2142ZM36.7135 9.30477C36.7219 9.29009 36.7261 9.28274 36.7261 9.28274C36.7261 9.2754 36.7303 9.26438 36.7387 9.24969C36.7471 9.23501 36.7513 9.22399 36.7513 9.21665C36.7513 9.20196 36.7555 9.18727 36.7639 9.17258C36.7722 9.15789 36.7764 9.14688 36.7764 9.13953C36.7764 9.13219 36.7806 9.12118 36.789 9.10649C36.789 9.0918 36.789 9.08078 36.789 9.07344C36.7974 9.05875 36.8016 9.04406 36.8016 9.02938C36.81 9 36.8142 8.97062 36.8142 8.94125C36.8226 8.91187 36.831 8.8825 36.8394 8.85312C36.8478 8.83109 36.852 8.79804 36.852 8.75398C36.852 8.73929 36.852 8.7246 36.852 8.70991C36.8604 8.69523 36.8646 8.68054 36.8646 8.66585V8.28029C36.8646 8.23623 36.8604 8.20318 36.852 8.18115V8.13709C36.852 8.1224 36.8478 8.11506 36.8394 8.11506C36.8394 8.10771 36.8394 8.0967 36.8394 8.08201C36.8394 8.04529 36.831 7.99021 36.8142 7.91677C36.8058 7.90208 36.8016 7.88739 36.8016 7.8727C36.8016 7.85802 36.7974 7.84333 36.789 7.82864C36.789 7.8213 36.7848 7.81763 36.7764 7.81763C36.7764 7.81028 36.7764 7.80294 36.7764 7.79559C36.7764 7.78825 36.7722 7.78458 36.7639 7.78458C36.7639 7.77723 36.7639 7.76989 36.7639 7.76255C36.7555 7.74786 36.7513 7.73684 36.7513 7.7295C36.7513 7.72215 36.7471 7.71114 36.7387 7.69645C36.7303 7.68176 36.7261 7.67075 36.7261 7.6634C36.7261 7.65606 36.7219 7.64504 36.7135 7.63035C36.7051 7.62301 36.7009 7.61567 36.7009 7.60832C36.7009 7.60098 36.6967 7.59364 36.6883 7.58629C36.6715 7.55692 36.6631 7.54223 36.6631 7.54223C36.6548 7.53488 36.6506 7.53121 36.6506 7.53121C36.6506 7.52387 36.6464 7.51652 36.638 7.50918C36.6296 7.50184 36.6254 7.49449 36.6254 7.48715C36.617 7.4798 36.6128 7.47246 36.6128 7.46512H36.6002C36.6002 7.46512 36.6044 7.47246 36.6128 7.48715V7.50918C36.6212 7.51652 36.6254 7.53121 36.6254 7.55324C36.6254 7.56059 36.6254 7.56793 36.6254 7.57528C36.6338 7.57528 36.638 7.58262 36.638 7.59731C36.638 7.61934 36.6422 7.6377 36.6506 7.65239V7.70747C36.6506 7.72215 36.6506 7.73317 36.6506 7.74051C36.6589 7.74786 36.6631 7.75887 36.6631 7.77356C36.6631 7.83966 36.6673 7.89106 36.6757 7.92778V8.10404C36.6841 8.14076 36.6883 8.19951 36.6883 8.28029V8.6989C36.6799 8.71359 36.6757 8.73195 36.6757 8.75398V9.00734C36.6673 9.03672 36.6631 9.0661 36.6631 9.09547C36.6631 9.1175 36.6631 9.13954 36.6631 9.16157C36.6631 9.17625 36.6589 9.18727 36.6506 9.19461C36.6506 9.20196 36.6506 9.21297 36.6506 9.22766V9.29376C36.6422 9.30845 36.638 9.32681 36.638 9.34884C36.638 9.36352 36.6338 9.37821 36.6254 9.3929C36.6254 9.40759 36.6212 9.4186 36.6128 9.42595V9.44798L36.6002 9.47001C36.6002 9.47001 36.6086 9.46634 36.6254 9.459V9.44798L36.638 9.43696C36.6464 9.42962 36.6506 9.42595 36.6506 9.42595C36.6506 9.4186 36.6548 9.41126 36.6631 9.40392C36.6715 9.38923 36.6799 9.37454 36.6883 9.35985C36.6967 9.33782 36.7051 9.31946 36.7135 9.30477Z" fill="#F4EDE8"/>
<path d="M41.6337 13.5349C41.6337 13.6671 41.6463 13.7662 41.6715 13.8323C41.705 13.8911 41.7386 13.9388 41.7722 13.9755C41.8057 14.0049 41.8351 14.0343 41.8603 14.0636C41.8939 14.093 41.9106 14.1408 41.9106 14.2069H38.4865C38.4362 14.2069 38.39 14.1885 38.3481 14.1518C38.3061 14.1151 38.2851 14.0747 38.2851 14.0306C38.2851 14.0747 38.2641 14.1151 38.2222 14.1518C38.1886 14.1885 38.1424 14.2069 38.0837 14.2069H37.4291C37.4291 14.1408 37.4417 14.093 37.4669 14.0636C37.5004 14.0343 37.534 14.0049 37.5676 13.9755C37.6011 13.9388 37.6305 13.8911 37.6557 13.8323C37.6893 13.7736 37.706 13.6818 37.706 13.5569V10.869C37.6809 10.6414 37.5634 10.4761 37.3536 10.3733C37.4459 10.3219 37.5634 10.2962 37.706 10.2962V7.14566C37.706 7.02081 37.6893 6.92901 37.6557 6.87026C37.6305 6.81151 37.6011 6.76744 37.5676 6.73807C37.534 6.70135 37.5004 6.6683 37.4669 6.63892C37.4417 6.60955 37.4291 6.56181 37.4291 6.49572H38.0963C38.1466 6.49572 38.1928 6.51408 38.2348 6.5508C38.2767 6.58017 38.2977 6.62056 38.2977 6.67197C38.2977 6.55447 38.3648 6.49572 38.4991 6.49572H41.9106C41.9106 6.56181 41.8939 6.60955 41.8603 6.63892C41.8351 6.6683 41.8057 6.70135 41.7722 6.73807C41.7386 6.76744 41.705 6.81518 41.6715 6.88127C41.6463 6.94002 41.6337 7.0355 41.6337 7.16769V8.6328C41.34 8.6328 41.1134 8.58507 40.9539 8.4896C40.8028 8.38678 40.6895 8.27295 40.614 8.1481C40.5217 8.00857 40.4713 7.84333 40.463 7.65239V7.31089C40.463 7.23011 40.4294 7.16034 40.3622 7.10159C40.2951 7.04284 40.2154 7.00979 40.1231 7.00245H39.2167C39.1244 7.00979 39.0446 7.04284 38.9775 7.10159C38.9103 7.16034 38.8768 7.23011 38.8768 7.31089V9.78947C38.8768 9.87026 38.9103 9.94002 38.9775 9.99878C39.0446 10.0575 39.1244 10.0869 39.2167 10.0869H39.3048C39.3971 10.0869 39.4726 10.0575 39.5314 9.99878C39.5985 9.94002 39.6321 9.87026 39.6321 9.78947V9.77846C39.6405 9.6683 39.6741 9.57283 39.7328 9.49204C39.7832 9.4186 39.8587 9.35251 39.9594 9.29376C40.0601 9.23501 40.207 9.20563 40.4 9.20563V11.4859C40.207 11.4859 40.0601 11.4565 39.9594 11.3978C39.8587 11.339 39.7832 11.2729 39.7328 11.1995C39.6741 11.1187 39.6405 11.0233 39.6321 10.9131C39.6321 10.8323 39.5985 10.7625 39.5314 10.7038C39.4726 10.645 39.3971 10.612 39.3048 10.6047H39.2167C39.1244 10.612 39.0446 10.645 38.9775 10.7038C38.9103 10.7625 38.8768 10.8323 38.8768 10.9131V13.3917C38.8768 13.4725 38.9103 13.5422 38.9775 13.601C39.0446 13.6597 39.1244 13.6891 39.2167 13.6891H40.1231C40.2154 13.6891 40.2951 13.6597 40.3622 13.601C40.4294 13.5422 40.463 13.4725 40.463 13.3917V13.0392C40.4713 12.8556 40.5217 12.694 40.614 12.5545C40.6895 12.4296 40.8028 12.3158 40.9539 12.213C41.1134 12.1102 41.34 12.0588 41.6337 12.0588V13.5349ZM38.3858 9.83354C38.3858 9.79682 38.3816 9.75643 38.3732 9.71236C38.3732 9.6683 38.3732 9.62424 38.3732 9.58017V9.33782C38.3648 9.17625 38.3606 9.02203 38.3606 8.87515C38.3606 8.72827 38.3564 8.58874 38.3481 8.45655C38.3397 8.3978 38.3355 8.33905 38.3355 8.28029C38.3355 8.22154 38.3313 8.16646 38.3229 8.11506C38.3229 8.0563 38.3187 8.0049 38.3103 7.96083C38.3103 7.91677 38.3103 7.87638 38.3103 7.83966C38.3103 7.80294 38.3061 7.76989 38.2977 7.74051C38.2977 7.71114 38.2977 7.68543 38.2977 7.6634V7.60832C38.2893 7.60832 38.2851 7.612 38.2851 7.61934V7.6634C38.2851 7.68543 38.2809 7.71114 38.2725 7.74051C38.2725 7.76989 38.2725 7.80294 38.2725 7.83966C38.2725 7.87638 38.2683 7.91677 38.2599 7.96083C38.2599 8.0049 38.2599 8.0563 38.2599 8.11506C38.2515 8.16646 38.2473 8.22154 38.2473 8.28029C38.2473 8.33905 38.2432 8.3978 38.2348 8.45655C38.2264 8.58874 38.2222 8.72827 38.2222 8.87515C38.2222 9.02203 38.218 9.17625 38.2096 9.33782V9.58017C38.2096 9.62424 38.2054 9.6683 38.197 9.71236C38.197 9.75643 38.197 9.79682 38.197 9.83354V10.858C38.197 10.9168 38.2012 10.9608 38.2096 10.9902V11.3537C38.2096 11.4345 38.2096 11.5153 38.2096 11.5961C38.218 11.6695 38.2222 11.743 38.2222 11.8164C38.2222 11.8972 38.2222 11.9706 38.2222 12.0367C38.2306 12.1028 38.2348 12.1689 38.2348 12.235C38.2432 12.3011 38.2473 12.3635 38.2473 12.4223C38.2473 12.4737 38.2515 12.5288 38.2599 12.5875C38.2599 12.6389 38.2599 12.6867 38.2599 12.7307C38.2683 12.7748 38.2725 12.8152 38.2725 12.8519C38.2725 12.8886 38.2725 12.9253 38.2725 12.9621C38.2809 12.9914 38.2851 13.0135 38.2851 13.0282V13.0832C38.2851 13.0906 38.2893 13.0942 38.2977 13.0942V13.0282C38.2977 13.0135 38.2977 12.9914 38.2977 12.9621C38.3061 12.9253 38.3103 12.8886 38.3103 12.8519C38.3103 12.8152 38.3103 12.7748 38.3103 12.7307C38.3187 12.6867 38.3229 12.6389 38.3229 12.5875C38.3313 12.5288 38.3355 12.4737 38.3355 12.4223C38.3355 12.3635 38.3397 12.3011 38.3481 12.235C38.3481 12.1689 38.3481 12.1028 38.3481 12.0367C38.3564 11.9706 38.3606 11.8972 38.3606 11.8164C38.3606 11.743 38.3606 11.6695 38.3606 11.5961C38.369 11.5153 38.3732 11.4345 38.3732 11.3537V11.1114C38.3732 11.0526 38.3774 11.0122 38.3858 10.9902V9.83354Z" fill="#F4EDE8"/>
<path d="M46.6979 14.6695C46.7902 14.6842 46.8531 14.7099 46.8867 14.7466C46.9287 14.7834 46.958 14.8201 46.9748 14.8568C46.9916 14.9009 47 14.9486 47 15C46.7314 15 46.4797 14.9706 46.2447 14.9119C46.0097 14.8531 45.7999 14.7577 45.6152 14.6255C45.439 14.4933 45.2963 14.3207 45.1872 14.1077C45.0865 13.8947 45.0362 13.634 45.0362 13.3256V11.8164C45.0362 11.7209 45.032 11.6034 45.0236 11.4639C45.0152 11.3244 44.9858 11.1922 44.9355 11.0673C44.8851 10.9425 44.8054 10.836 44.6963 10.7479C44.5956 10.6524 44.4445 10.6047 44.2431 10.6047H43.7269C43.6514 10.6193 43.5843 10.6561 43.5255 10.7148C43.4752 10.7662 43.45 10.8286 43.45 10.9021V13.5349C43.45 13.6671 43.4626 13.7662 43.4878 13.8323C43.5213 13.8911 43.5549 13.9388 43.5885 13.9755C43.622 14.0049 43.6514 14.0343 43.6766 14.0636C43.7102 14.093 43.7269 14.1408 43.7269 14.2069H43.0598C43.0094 14.2069 42.9632 14.1885 42.9213 14.1518C42.8793 14.1151 42.8583 14.0747 42.8583 14.0306C42.8583 14.0747 42.8374 14.1151 42.7954 14.1518C42.7618 14.1885 42.7157 14.2069 42.6569 14.2069H42.0023C42.0023 14.1408 42.0149 14.093 42.0401 14.0636C42.0736 14.0343 42.1072 14.0049 42.1408 13.9755C42.1743 13.9388 42.2037 13.8911 42.2289 13.8323C42.2625 13.7736 42.2793 13.6818 42.2793 13.5569V10.869C42.2541 10.6414 42.1366 10.4761 41.9268 10.3733C42.0191 10.3219 42.1366 10.2962 42.2793 10.2962V7.14566C42.2793 7.02081 42.2625 6.92901 42.2289 6.87026C42.2037 6.81151 42.1743 6.76744 42.1408 6.73807C42.1072 6.70135 42.0736 6.6683 42.0401 6.63892C42.0149 6.60955 42.0023 6.56181 42.0023 6.49572H42.6695C42.7199 6.49572 42.766 6.51408 42.808 6.5508C42.8499 6.58017 42.8709 6.62056 42.8709 6.67197C42.8709 6.55447 42.9381 6.49572 43.0723 6.49572H44.2557C44.5242 6.49572 44.776 6.53978 45.011 6.62791C45.246 6.71603 45.4516 6.83721 45.6278 6.99143C45.8041 7.13831 45.9425 7.31457 46.0433 7.5202C46.144 7.72583 46.1985 7.94247 46.2069 8.17013V8.88617C46.2069 9.19461 46.123 9.47736 45.9551 9.73439C45.7873 9.99143 45.5607 10.1971 45.2754 10.3513C45.5607 10.4982 45.7873 10.7038 45.9551 10.9682C46.123 11.2252 46.2069 11.508 46.2069 11.8164V13.2815C46.2069 13.4357 46.2069 13.5936 46.2069 13.7552C46.2153 13.9094 46.2363 14.0526 46.2699 14.1848C46.3034 14.3097 46.3538 14.4162 46.4209 14.5043C46.4881 14.5924 46.5804 14.6475 46.6979 14.6695ZM45.5523 8.6989C45.5439 8.71359 45.5397 8.73195 45.5397 8.75398V9.00734C45.5313 9.03672 45.5271 9.0661 45.5271 9.09547C45.5271 9.1175 45.5271 9.13954 45.5271 9.16157C45.5271 9.17625 45.5229 9.18727 45.5145 9.19461C45.5145 9.20196 45.5145 9.21297 45.5145 9.22766V9.29376C45.5061 9.30845 45.502 9.32681 45.502 9.34884C45.502 9.36352 45.4978 9.37821 45.4894 9.3929C45.4894 9.40759 45.4852 9.4186 45.4768 9.42595V9.44798L45.4642 9.47001C45.4642 9.47001 45.4726 9.46634 45.4894 9.459V9.44798L45.502 9.43696C45.5103 9.42962 45.5145 9.42595 45.5145 9.42595C45.5145 9.4186 45.5187 9.41126 45.5271 9.40392C45.5355 9.38923 45.5439 9.37454 45.5523 9.35985C45.5607 9.33782 45.5691 9.31946 45.5775 9.30477C45.5859 9.29009 45.5901 9.28274 45.5901 9.28274C45.5901 9.2754 45.5943 9.26438 45.6027 9.24969C45.6111 9.23501 45.6152 9.22399 45.6152 9.21665C45.6152 9.20196 45.6194 9.18727 45.6278 9.17258C45.6362 9.15789 45.6404 9.14688 45.6404 9.13953C45.6404 9.13219 45.6446 9.12118 45.653 9.10649C45.653 9.0918 45.653 9.08078 45.653 9.07344C45.6614 9.05875 45.6656 9.04406 45.6656 9.02938C45.674 9 45.6782 8.97062 45.6782 8.94125C45.6866 8.91187 45.695 8.8825 45.7034 8.85312C45.7118 8.83109 45.716 8.79804 45.716 8.75398C45.716 8.73929 45.716 8.7246 45.716 8.70991C45.7243 8.69523 45.7285 8.68054 45.7285 8.66585V8.28029C45.7285 8.23623 45.7243 8.20318 45.716 8.18115V8.13709C45.716 8.1224 45.7118 8.11506 45.7034 8.11506C45.7034 8.10771 45.7034 8.0967 45.7034 8.08201C45.7034 8.04529 45.695 7.99021 45.6782 7.91677C45.6698 7.90208 45.6656 7.88739 45.6656 7.8727C45.6656 7.85802 45.6614 7.84333 45.653 7.82864C45.653 7.8213 45.6488 7.81763 45.6404 7.81763C45.6404 7.81028 45.6404 7.80294 45.6404 7.79559C45.6404 7.78825 45.6362 7.78458 45.6278 7.78458C45.6278 7.77723 45.6278 7.76989 45.6278 7.76255C45.6194 7.74786 45.6152 7.73684 45.6152 7.7295C45.6152 7.72215 45.6111 7.71114 45.6027 7.69645C45.5943 7.68176 45.5901 7.67075 45.5901 7.6634C45.5901 7.65606 45.5859 7.64504 45.5775 7.63035C45.5691 7.62301 45.5649 7.61567 45.5649 7.60832C45.5649 7.60098 45.5607 7.59364 45.5523 7.58629C45.5355 7.55692 45.5271 7.54223 45.5271 7.54223C45.5187 7.53488 45.5145 7.53121 45.5145 7.53121C45.5145 7.52387 45.5103 7.51652 45.502 7.50918C45.4936 7.50184 45.4894 7.49449 45.4894 7.48715C45.481 7.4798 45.4768 7.47246 45.4768 7.46512H45.4642C45.4642 7.46512 45.4684 7.47246 45.4768 7.48715V7.50918C45.4852 7.51652 45.4894 7.53121 45.4894 7.55324C45.4894 7.56059 45.4894 7.56793 45.4894 7.57528C45.4978 7.57528 45.502 7.58262 45.502 7.59731C45.502 7.61934 45.5061 7.6377 45.5145 7.65239V7.70747C45.5145 7.72215 45.5145 7.73317 45.5145 7.74051C45.5229 7.74786 45.5271 7.75887 45.5271 7.77356C45.5271 7.83966 45.5313 7.89106 45.5397 7.92778V8.10404C45.5481 8.14076 45.5523 8.19951 45.5523 8.28029V8.6989ZM42.959 9.83354C42.959 9.79682 42.9548 9.75643 42.9465 9.71236C42.9465 9.6683 42.9465 9.62424 42.9465 9.58017V9.33782C42.9381 9.17625 42.9339 9.02203 42.9339 8.87515C42.9339 8.72827 42.9297 8.58874 42.9213 8.45655C42.9129 8.3978 42.9087 8.33905 42.9087 8.28029C42.9087 8.22154 42.9045 8.16646 42.8961 8.11506C42.8961 8.0563 42.8919 8.0049 42.8835 7.96083C42.8835 7.91677 42.8835 7.87638 42.8835 7.83966C42.8835 7.80294 42.8793 7.76989 42.8709 7.74051C42.8709 7.71114 42.8709 7.68543 42.8709 7.6634V7.60832C42.8625 7.60832 42.8583 7.612 42.8583 7.61934V7.6634C42.8583 7.68543 42.8541 7.71114 42.8457 7.74051C42.8457 7.76989 42.8457 7.80294 42.8457 7.83966C42.8457 7.87638 42.8415 7.91677 42.8332 7.96083C42.8332 8.0049 42.8332 8.0563 42.8332 8.11506C42.8248 8.16646 42.8206 8.22154 42.8206 8.28029C42.8206 8.33905 42.8164 8.3978 42.808 8.45655C42.7996 8.58874 42.7954 8.72827 42.7954 8.87515C42.7954 9.02203 42.7912 9.17625 42.7828 9.33782V9.58017C42.7828 9.62424 42.7786 9.6683 42.7702 9.71236C42.7702 9.75643 42.7702 9.79682 42.7702 9.83354V10.858C42.7702 10.9168 42.7744 10.9608 42.7828 10.9902V11.3537C42.7828 11.4345 42.7828 11.5153 42.7828 11.5961C42.7912 11.6695 42.7954 11.743 42.7954 11.8164C42.7954 11.8972 42.7954 11.9706 42.7954 12.0367C42.8038 12.1028 42.808 12.1689 42.808 12.235C42.8164 12.3011 42.8206 12.3635 42.8206 12.4223C42.8206 12.4737 42.8248 12.5288 42.8332 12.5875C42.8332 12.6389 42.8332 12.6867 42.8332 12.7307C42.8415 12.7748 42.8457 12.8152 42.8457 12.8519C42.8457 12.8886 42.8457 12.9253 42.8457 12.9621C42.8541 12.9914 42.8583 13.0135 42.8583 13.0282V13.0832C42.8583 13.0906 42.8625 13.0942 42.8709 13.0942V13.0282C42.8709 13.0135 42.8709 12.9914 42.8709 12.9621C42.8793 12.9253 42.8835 12.8886 42.8835 12.8519C42.8835 12.8152 42.8835 12.7748 42.8835 12.7307C42.8919 12.6867 42.8961 12.6389 42.8961 12.5875C42.9045 12.5288 42.9087 12.4737 42.9087 12.4223C42.9087 12.3635 42.9129 12.3011 42.9213 12.235C42.9213 12.1689 42.9213 12.1028 42.9213 12.0367C42.9297 11.9706 42.9339 11.8972 42.9339 11.8164C42.9339 11.743 42.9339 11.6695 42.9339 11.5961C42.9423 11.5153 42.9465 11.4345 42.9465 11.3537V11.1114C42.9465 11.0526 42.9506 11.0122 42.959 10.9902V9.83354ZM45.0362 8.2142C45.0362 8.11873 45.032 8.00122 45.0236 7.86169C45.0152 7.72215 44.9858 7.58996 44.9355 7.46512C44.8851 7.34027 44.8054 7.23378 44.6963 7.14566C44.5956 7.05018 44.4445 7.00245 44.2431 7.00245H43.7899C43.6976 7.00979 43.6178 7.04284 43.5507 7.10159C43.4836 7.16034 43.45 7.23011 43.45 7.31089V9.78947C43.45 9.87026 43.4836 9.94002 43.5507 9.99878C43.6178 10.0575 43.6976 10.0869 43.7899 10.0869H44.2431C44.4445 10.0869 44.5956 10.0428 44.6963 9.95471C44.8054 9.86658 44.8851 9.7601 44.9355 9.63525C44.9858 9.50306 45.0152 9.37087 45.0236 9.23868C45.032 9.09914 45.0362 8.98164 45.0362 8.88617V8.2142ZM45.8796 14.2509C45.8796 14.2509 45.8754 14.2472 45.867 14.2399L45.8544 14.2289C45.846 14.2142 45.8376 14.1995 45.8293 14.1848C45.8293 14.1701 45.8209 14.1554 45.8041 14.1408C45.7957 14.1187 45.7873 14.0967 45.7789 14.0747C45.7705 14.0453 45.7621 14.0122 45.7537 13.9755C45.7369 13.9021 45.7285 13.8323 45.7285 13.7662C45.7202 13.7295 45.716 13.6928 45.716 13.6561C45.716 13.612 45.716 13.5643 45.716 13.5129V12.929C45.716 12.8776 45.716 12.8262 45.716 12.7748C45.716 12.7234 45.7202 12.6683 45.7285 12.6095C45.7285 12.5581 45.7285 12.5067 45.7285 12.4553C45.7285 12.4039 45.7243 12.3525 45.716 12.3011V12.1469C45.716 12.0734 45.7118 12.022 45.7034 11.9927C45.7034 11.9412 45.6992 11.8935 45.6908 11.8494C45.6908 11.798 45.6866 11.7503 45.6782 11.7062C45.6614 11.6034 45.6446 11.5153 45.6278 11.4419C45.6194 11.4051 45.6111 11.3721 45.6027 11.3427C45.5943 11.306 45.5817 11.2693 45.5649 11.2326C45.5481 11.1958 45.5355 11.1665 45.5271 11.1444C45.5187 11.1224 45.5061 11.1004 45.4894 11.0783C45.4726 11.0563 45.46 11.0379 45.4516 11.0233C45.4432 11.0086 45.4348 10.9939 45.4264 10.9792C45.418 10.9792 45.4096 10.9755 45.4012 10.9682C45.3928 10.9682 45.3887 10.9645 45.3887 10.9572L45.4012 10.9682C45.4012 10.9755 45.4054 10.9829 45.4138 10.9902C45.4138 10.9976 45.4138 11.0049 45.4138 11.0122C45.4222 11.0122 45.4264 11.0196 45.4264 11.0343C45.4348 11.0416 45.439 11.049 45.439 11.0563C45.439 11.0636 45.4432 11.0747 45.4516 11.0894C45.46 11.1187 45.4726 11.1701 45.4894 11.2436C45.4978 11.2803 45.502 11.317 45.502 11.3537C45.5103 11.3905 45.5187 11.4272 45.5271 11.4639C45.5271 11.5006 45.5271 11.541 45.5271 11.5851C45.5355 11.6218 45.5397 11.6659 45.5397 11.7173V13.0832C45.5397 13.1126 45.5397 13.1383 45.5397 13.1603C45.5481 13.1824 45.5523 13.2081 45.5523 13.2375C45.5523 13.2889 45.5523 13.3403 45.5523 13.3917C45.5607 13.4357 45.5691 13.4798 45.5775 13.5239C45.5859 13.5679 45.5901 13.612 45.5901 13.6561C45.5985 13.7001 45.6069 13.7405 45.6152 13.7772C45.632 13.8213 45.6446 13.8617 45.653 13.8984C45.6614 13.9278 45.674 13.9608 45.6908 13.9976C45.7076 14.0343 45.7202 14.0636 45.7285 14.0857C45.7369 14.1077 45.7495 14.1297 45.7663 14.1518L45.7915 14.1738C45.7999 14.1812 45.8041 14.1885 45.8041 14.1958C45.8041 14.1958 45.8083 14.1995 45.8167 14.2069L45.867 14.2509H45.8796Z" fill="#F4EDE8"/>
<rect x="4" width="48" height="1" fill="#FF9000"/>
<circle r="1.75" transform="matrix(1 0 0 -1 1.75 9.75)" fill="#999591"/>
</svg>
